<?xml version="1.0" encoding="UTF-8" standalone="no"?>
<!-- Created with Inkscape (http://www.inkscape.org/) -->

<svg
   xmlns:dc="http://purl.org/dc/elements/1.1/"
   xmlns:cc="http://creativecommons.org/ns#"
   xmlns:rdf="http://www.w3.org/1999/02/22-rdf-syntax-ns#"
   xmlns:svg="http://www.w3.org/2000/svg"
   xmlns="http://www.w3.org/2000/svg"
   xmlns:xlink="http://www.w3.org/1999/xlink"
   xmlns:sodipodi="http://sodipodi.sourceforge.net/DTD/sodipodi-0.dtd"
   xmlns:inkscape="http://www.inkscape.org/namespaces/inkscape"
   width="100"
   height="100"
   id="svg3332"
   version="1.1"
   inkscape:version="0.48.4 r9939"
   sodipodi:docname="compass needle.svg"
   inkscape:export-filename="/run/media/ben/Yard/Sometile Grid/compass base.png"
   inkscape:export-xdpi="90"
   inkscape:export-ydpi="90">
  <defs
     id="defs3334">
    <marker
       inkscape:stockid="Arrow1Lstart"
       orient="auto"
       refY="0.0"
       refX="0.0"
       id="Arrow1Lstart"
       style="overflow:visible">
      <path
         id="path4379"
         d="M 0.0,0.0 L 5.0,-5.0 L -12.5,0.0 L 5.0,5.0 L 0.0,0.0 z "
         style="fill-rule:evenodd;stroke:#000000;stroke-width:1.0pt"
         transform="scale(0.8) translate(12.5,0)" />
    </marker>
  </defs>
  <sodipodi:namedview
     id="base"
     pagecolor="#606060"
     bordercolor="#666666"
     borderopacity="1.0"
     inkscape:pageopacity="0"
     inkscape:pageshadow="2"
     inkscape:zoom="1"
     inkscape:cx="209.62135"
     inkscape:cy="56.435034"
     inkscape:document-units="px"
     inkscape:current-layer="layer1"
     showgrid="false"
     inkscape:showpageshadow="false"
     showguides="false"
     inkscape:guide-bbox="true"
     inkscape:window-width="1366"
     inkscape:window-height="718"
     inkscape:window-x="0"
     inkscape:window-y="28"
     inkscape:window-maximized="1">
    <sodipodi:guide
       orientation="0,1"
       position="50,50"
       id="guide3342" />
    <sodipodi:guide
       orientation="1,0"
       position="50,100"
       id="guide3344" />
  </sodipodi:namedview>
  <metadata
     id="metadata3337">
    <rdf:RDF>
      <cc:Work
         rdf:about="">
        <dc:format>image/svg+xml</dc:format>
        <dc:type
           rdf:resource="http://purl.org/dc/dcmitype/StillImage" />
        <dc:title></dc:title>
      </cc:Work>
    </rdf:RDF>
  </metadata>
  <g
     inkscape:groupmode="layer"
     id="layer2"
     inkscape:label="base"
     sodipodi:insensitive="true"
     style="display:inline">
    <path
       sodipodi:type="arc"
       style="color:#000000;fill:#000000;fill-opacity:0.50196078;stroke:#ffffff;stroke-width:1;stroke-linecap:round;stroke-linejoin:round;stroke-miterlimit:4;stroke-opacity:1;stroke-dasharray:none;stroke-dashoffset:0;marker:none;visibility:visible;display:inline;overflow:visible;enable-background:accumulate"
       id="path4174"
       sodipodi:cx="50"
       sodipodi:cy="50"
       sodipodi:rx="40.5"
       sodipodi:ry="40.5"
       d="m 90.5,50 a 40.5,40.5 0 1 1 -81,0 40.5,40.5 0 1 1 81,0 z" />
    <path
       style="color:#000000;fill:#ffffff;fill-opacity:1;fill-rule:nonzero;stroke:none;stroke-width:1;marker:none;visibility:visible;display:inline;overflow:visible;enable-background:accumulate"
       d="M 9.53125,49 C 9.5232169,49.331924 9.5,49.666142 9.5,50 c 0,0.333858 0.023217,0.668076 0.03125,1 l 14.3125,0 c -0.01257,-0.333198 -0.03125,-0.663727 -0.03125,-1 0,-0.336273 0.01868,-0.666802 0.03125,-1 l -14.3125,0 z m 66.625,0 c 0.01257,0.333198 0.03125,0.663727 0.03125,1 0,0.336273 -0.01868,0.666802 -0.03125,1 l 14.3125,0 C 90.47675,50.668076 90.5,50.333858 90.5,50 c 0,-0.333858 -0.02322,-0.668076 -0.03125,-1 l -14.3125,0 z"
       id="rect4176"
       inkscape:connector-curvature="0" />
    <use
       x="0"
       y="0"
       xlink:href="#rect4176"
       id="use4184"
       transform="matrix(0,-1,1,0,0,100)"
       width="100"
       height="100" />
    <path
       style="color:#000000;fill:#ffffff;fill-opacity:1;fill-rule:nonzero;stroke:none;stroke-width:1;marker:none;visibility:visible;display:inline;overflow:visible;enable-background:accumulate"
       d="m 20.677166,77.908621 c 0.229025,0.240386 0.448936,0.49313 0.685009,0.729204 0.236074,0.236073 0.488818,0.455984 0.729204,0.685009 l 5.413787,-5.413786 c -0.242953,-0.228784 -0.491619,-0.447425 -0.729204,-0.68501 -0.237585,-0.237585 -0.456226,-0.486251 -0.68501,-0.729204 l -5.413786,5.413787 z M 72.494834,26.090952 c 0.242953,0.228784 0.491619,0.447425 0.729204,0.68501 0.237585,0.237585 0.456226,0.486251 0.68501,0.729204 l 5.413786,-5.413787 c -0.229025,-0.240386 -0.448936,-0.49313 -0.685009,-0.729204 -0.236074,-0.236073 -0.488818,-0.455984 -0.729204,-0.685009 l -5.413787,5.413786 z"
       id="path4186"
       inkscape:connector-curvature="0" />
    <use
       x="0"
       y="0"
       xlink:href="#path4186"
       id="use4191"
       transform="matrix(0,-1,1,0,0,100)"
       width="100"
       height="100" />
    <path
       d="m 90.5,50 a 40.5,40.5 0 1 1 -81,0 40.5,40.5 0 1 1 81,0 z"
       sodipodi:ry="40.5"
       sodipodi:rx="40.5"
       sodipodi:cy="50"
       sodipodi:cx="50"
       id="path4193"
       style="color:#000000;fill:none;stroke:#ffffff;stroke-width:2.97610641;stroke-linecap:butt;stroke-linejoin:round;stroke-miterlimit:4;stroke-opacity:1;stroke-dasharray:none;stroke-dashoffset:0;marker:none;visibility:visible;display:inline;overflow:visible;enable-background:accumulate"
       sodipodi:type="arc"
       transform="matrix(0.33600949,0,0,0.33600949,33.199526,33.199526)" />
    <path
       transform="matrix(0.26022649,0,0,0.26022649,36.988676,36.988676)"
       sodipodi:type="arc"
       style="color:#000000;fill:none;stroke:#ffffff;stroke-width:3.84280634;stroke-linecap:butt;stroke-linejoin:round;stroke-miterlimit:4;stroke-opacity:1;stroke-dasharray:none;stroke-dashoffset:0;marker:none;visibility:visible;display:inline;overflow:visible;enable-background:accumulate"
       id="path5001"
       sodipodi:cx="50"
       sodipodi:cy="50"
       sodipodi:rx="40.5"
       sodipodi:ry="40.5"
       d="m 90.5,50 a 40.5,40.5 0 1 1 -81,0 40.5,40.5 0 1 1 81,0 z" />
  </g>
  <g
     inkscape:label="needle"
     inkscape:groupmode="layer"
     id="layer1"
     transform="translate(0,-952.36218)"
     sodipodi:insensitive="true"
     style="display:inline">
    <path
       style="color:#000000;fill:#d72222;fill-opacity:1;fill-rule:nonzero;stroke:none;stroke-width:1.5;marker:none;visibility:visible;display:inline;overflow:visible;enable-background:accumulate"
       d="m 50,4.78125 -8.96875,12.5 5.5,7.65625 0,42.03125 L 41.5,72 l 0,19 2.5,0 6,-6 6,6 2.5,0 0,-19 -5.03125,-5.03125 0,-42.03125 5.5,-7.65625 L 50,4.78125 z"
       transform="translate(0,952.36218)"
       id="rect3349"
       inkscape:connector-curvature="0" />
    <path
       style="color:#000000;fill:#f4b7b7;fill-opacity:1;fill-rule:nonzero;stroke:none;stroke-width:1.5;marker:none;visibility:visible;display:inline;overflow:visible;enable-background:accumulate"
       d="m 50,1019.3622 -8.5,8.5 0,6.25 8.5,-8.5 8.5,8.5 0,-6.25 -8.5,-8.5 z"
       id="rect4119"
       inkscape:connector-curvature="0" />
    <use
       x="0"
       y="0"
       xlink:href="#rect4119"
       id="use4134"
       transform="translate(0,9)"
       width="100"
       height="100" />
    <path
       style="color:#000000;fill:#f4b7b7;fill-opacity:1;fill-rule:nonzero;stroke:none;stroke-width:1.5;marker:none;visibility:visible;display:inline;overflow:visible;enable-background:accumulate"
       d="m 50,4.78125 -8.96875,12.5 1.4375,2 7.53125,-10.5 7.53125,10.5 1.4375,-2 z"
       transform="translate(0,952.36218)"
       id="path4143"
       inkscape:connector-curvature="0"
       sodipodi:nodetypes="ccccccc" />
    <path
       id="path4150"
       transform="translate(0,952.36218)"
       d="m 50,4.78125 -8.96875,12.5 5.5,7.65625 0,42.03125 L 41.5,72 l 0,19 2.5,0 6,-6 6,6 2.5,0 0,-19 -5.03125,-5.03125 0,-42.03125 5.5,-7.65625 L 50,4.78125 z"
       style="color:#000000;fill:none;stroke:#000000;stroke-width:1;stroke-linejoin:round;stroke-miterlimit:4;stroke-opacity:1;stroke-dasharray:none;marker:none;visibility:visible;display:inline;overflow:visible;enable-background:accumulate"
       inkscape:connector-curvature="0" />
  </g>
</svg>
