<?xml version="1.0" encoding="UTF-8" standalone="no"?>
<!-- Created with Inkscape (http://www.inkscape.org/) -->

<svg
   xmlns:dc="http://purl.org/dc/elements/1.1/"
   xmlns:cc="http://creativecommons.org/ns#"
   xmlns:rdf="http://www.w3.org/1999/02/22-rdf-syntax-ns#"
   xmlns:svg="http://www.w3.org/2000/svg"
   xmlns="http://www.w3.org/2000/svg"
   xmlns:xlink="http://www.w3.org/1999/xlink"
   xmlns:sodipodi="http://sodipodi.sourceforge.net/DTD/sodipodi-0.dtd"
   xmlns:inkscape="http://www.inkscape.org/namespaces/inkscape"
   width="60"
   height="60"
   id="svg5385"
   version="1.1"
   inkscape:version="0.48.4 r9939"
   sodipodi:docname="dismount.svg"
   inkscape:export-filename="/run/media/ben/Yard/Go Hug a Panda/dismount.png"
   inkscape:export-xdpi="90"
   inkscape:export-ydpi="90">
  <defs
     id="defs5387" />
  <sodipodi:namedview
     id="base"
     pagecolor="#808080"
     bordercolor="#666666"
     borderopacity="1.0"
     inkscape:pageopacity="0"
     inkscape:pageshadow="2"
     inkscape:zoom="1"
     inkscape:cx="-19.938296"
     inkscape:cy="51.269963"
     inkscape:document-units="px"
     inkscape:current-layer="layer1"
     showgrid="false"
     inkscape:showpageshadow="false"
     inkscape:window-width="1366"
     inkscape:window-height="718"
     inkscape:window-x="0"
     inkscape:window-y="28"
     inkscape:window-maximized="1" />
  <metadata
     id="metadata5390">
    <rdf:RDF>
      <cc:Work
         rdf:about="">
        <dc:format>image/svg+xml</dc:format>
        <dc:type
           rdf:resource="http://purl.org/dc/dcmitype/StillImage" />
        <dc:title></dc:title>
      </cc:Work>
    </rdf:RDF>
  </metadata>
  <g
     inkscape:label="Layer 1"
     inkscape:groupmode="layer"
     id="layer1"
     transform="translate(0,-992.36218)">
    <g
       id="g6171"
       transform="translate(-6.5961941,2.4852814)">
      <path
         id="path4007"
         transform="translate(0,992.36218)"
         d="m 23.15625,22.75 c -4.487314,0 -8.125,3.8056 -8.125,8.5 0,1.3226 0.29734,2.5712 0.8125,3.6875 -1.005668,0.7138 -1.65625,1.8604 -1.65625,3.1875 0,2.1757 1.761813,3.9375 3.9375,3.9375 1.653409,0 3.040689,-1.02485 3.625,-2.46875 0.460059,0.085 0.923001,0.15625 1.40625,0.15625 0.959189,0 1.864433,-0.1807 2.71875,-0.5 0.251355,1.9334 1.904376,3.4375 3.90625,3.4375 2.175687,0 3.9375,-1.7618 3.9375,-3.9375 0,-0.153282 -0.04532,-0.288737 -0.0625,-0.4375 0.911878,-0.193192 1.789358,-0.516003 2.5625,-0.90625 0.51381,0.9198 1.496557,1.53125 2.625,1.53125 1.659728,0 3,-1.3403 3,-3 0,-1.2202 -0.736703,-2.24795 -1.78125,-2.71875 0.188269,-0.5734 0.3125,-1.16115 0.3125,-1.78125 0,-3.9241 -4.019586,-7.09375 -8.96875,-7.09375 -1.15203,0 -2.696045,-0.261728 -4.15625,-0.40625 -0.0073,-0.0045 -0.02395,0.0045 -0.03125,0 C 26.015641,23.200846 24.650922,22.75 23.15625,22.75 z"
         style="color:#000000;fill:#000000;fill-opacity:0.50196078;fill-rule:nonzero;stroke:#ffffff;stroke-width:1;stroke-linecap:butt;stroke-linejoin:round;stroke-miterlimit:4;stroke-opacity:1;stroke-dashoffset:0;marker:none;visibility:visible;display:inline;overflow:visible;enable-background:accumulate"
         inkscape:connector-curvature="0" />
      <path
         style="fill:#000000;fill-opacity:0.50196078;stroke:#ffffff;stroke-width:1px;stroke-linecap:butt;stroke-linejoin:miter;stroke-opacity:1"
         d="m 14.533394,1031.253 2.048097,-0.9035"
         id="path4032"
         inkscape:connector-curvature="0"
         sodipodi:nodetypes="cc" />
      <path
         style="fill:#000000;fill-opacity:0.50196078;stroke:#ffffff;stroke-width:1px;stroke-linecap:butt;stroke-linejoin:miter;stroke-opacity:1"
         d="m 15.697607,1033.1672 1.580267,-1.2678"
         id="path4034"
         inkscape:connector-curvature="0"
         sodipodi:nodetypes="cc" />
      <path
         style="fill:#000000;fill-opacity:0.50196078;stroke:#ffffff;stroke-width:1px;stroke-linecap:butt;stroke-linejoin:miter;stroke-opacity:1"
         d="m 18.379588,1034.4172 0.198223,-1.966"
         id="path4036"
         inkscape:connector-curvature="0"
         sodipodi:nodetypes="cc" />
      <path
         style="fill:#000000;fill-opacity:0.50196078;stroke:#ffffff;stroke-width:1px;stroke-linecap:butt;stroke-linejoin:miter;stroke-opacity:1"
         d="m 33.515627,1032.3706 -1.9375,-0.875"
         id="path4038"
         inkscape:connector-curvature="0"
         sodipodi:nodetypes="cc" />
      <path
         style="fill:#000000;fill-opacity:0.50196078;stroke:#ffffff;stroke-width:1px;stroke-linecap:butt;stroke-linejoin:miter;stroke-opacity:1"
         d="m 31.953127,1034.2456 -1.25,-1.1875"
         id="path4040"
         inkscape:connector-curvature="0"
         sodipodi:nodetypes="cc" />
      <path
         style="fill:#000000;fill-opacity:0.50196078;stroke:#ffffff;stroke-width:1px;stroke-linecap:butt;stroke-linejoin:miter;stroke-opacity:1"
         d="m 29.203127,1034.8706 0,-1.3125"
         id="path4044"
         inkscape:connector-curvature="0"
         sodipodi:nodetypes="cc" />
      <g
         style="fill:#000000;fill-opacity:0.50196078;stroke:#ffffff;stroke-opacity:1"
         transform="translate(12.83885,1006.267)"
         inkscape:label="head"
         id="layer3">
        <path
           sodipodi:nodetypes="sscscss"
           inkscape:connector-curvature="0"
           id="path4063"
           d="m 9.5517767,1.4785534 c -3.0621227,0 -5.5625,2.4691273 -5.5625,5.53125 0,1.7314959 0.819071,3.2644946 2.0625,4.2812496 0.1146887,1.849088 1.6051377,2.59375 3.4831163,2.59375 1.877979,0 3.402195,-0.744662 3.516884,-2.59375 1.243429,-1.016755 2.03125,-2.5497537 2.03125,-4.2812496 0,-3.0621227 -2.469127,-5.53125 -5.5312503,-5.53125 z"
           style="color:#000000;fill:#000000;fill-opacity:0.50196078;fill-rule:nonzero;stroke:#ffffff;stroke-width:1;stroke-linecap:butt;stroke-linejoin:round;stroke-miterlimit:4;stroke-opacity:1;stroke-dasharray:none;stroke-dashoffset:0;marker:none;visibility:visible;display:inline;overflow:visible;enable-background:accumulate" />
        <path
           sodipodi:nodetypes="cssscscssscc"
           inkscape:connector-curvature="0"
           id="path4074"
           d="m 7.3795267,9.3828586 c 0,0 -0.1624219,0.9101084 -0.4678303,1.9455184 -0.3054087,1.035409 -0.8804906,2.192488 -1.1452598,2.408055 -0.4926974,0.40114 -0.9249663,0.561087 -1.2422008,0.631919 -0.3172344,0.07083 -0.4330898,0.04343 -0.4330898,0.04343 -0.3960664,-0.0406 -0.7933704,0.282833 -0.8339405,0.678901 -0.04057,0.396069 0.2829107,0.793343 0.6789833,0.833874 0,0 0.3921441,0.0057 0.9045723,-0.108752 0.5124283,-0.114413 1.1835524,-0.354628 1.8701198,-0.91361 0.9144956,-0.744555 1.3069513,-2.020765 1.6393249,-3.147593 0.3323735,-1.126826 0.509089,-2.0962216 0.509089,-2.0962216 z"
           style="font-size:medium;font-style:normal;font-variant:normal;font-weight:normal;font-stretch:normal;text-indent:0;text-align:start;text-decoration:none;line-height:normal;letter-spacing:normal;word-spacing:normal;text-transform:none;direction:ltr;block-progression:tb;writing-mode:lr-tb;text-anchor:start;baseline-shift:baseline;color:#000000;fill:#000000;fill-opacity:0.50196078;stroke:#ffffff;stroke-width:1;stroke-linejoin:round;stroke-miterlimit:4;stroke-opacity:1;stroke-dasharray:none;marker:none;visibility:visible;display:inline;overflow:visible;enable-background:accumulate;font-family:Sans;-inkscape-font-specification:Sans" />
        <use
           style="fill:#000000;fill-opacity:0.50196078;stroke:#ffffff;stroke-opacity:1"
           height="30"
           width="30"
           transform="matrix(-1,0,0,1,19.138533,0)"
           id="use4102"
           xlink:href="#path4074"
           y="0"
           x="0" />
        <path
           sodipodi:nodetypes="sssss"
           inkscape:connector-curvature="0"
           id="path4082"
           d="m 15.051777,6.9160534 c 0,3.0468908 -2.469993,3.2043836 -5.516884,3.2043836 -3.0468908,0 -5.516884,-0.1574928 -5.516884,-3.2043836 0,-3.0468908 2.469993,-5.5168839 5.5168838,-5.5168839 3.0468912,0 5.5168842,2.4699931 5.5168842,5.5168839 z"
           style="color:#000000;fill:#000000;fill-opacity:0.50196078;fill-rule:nonzero;stroke:#ffffff;stroke-width:1;stroke-linecap:butt;stroke-linejoin:round;stroke-miterlimit:4;stroke-opacity:1;stroke-dashoffset:0;marker:none;visibility:visible;display:inline;overflow:visible;enable-background:accumulate" />
        <path
           transform="translate(-0.1982233,0.35355339)"
           d="m 6.8942913,5.3838453 c 0,0.6101942 -0.2176504,1.1048544 -0.4861359,1.1048544 -0.2684854,0 -0.4861359,-0.4946602 -0.4861359,-1.1048544 0,-0.6101942 0.2176505,-1.1048543 0.4861359,-1.1048543 0.2684855,0 0.4861359,0.4946601 0.4861359,1.1048543 z"
           sodipodi:ry="1.1048543"
           sodipodi:rx="0.4861359"
           sodipodi:cy="5.3838453"
           sodipodi:cx="6.4081554"
           id="path4068"
           style="color:#000000;fill:#000000;fill-opacity:0.50196078;fill-rule:nonzero;stroke:#ffffff;stroke-width:1;stroke-linecap:butt;stroke-linejoin:round;stroke-miterlimit:4;stroke-opacity:1;stroke-dasharray:none;stroke-dashoffset:0;marker:none;visibility:visible;display:inline;overflow:visible;enable-background:accumulate"
           sodipodi:type="arc" />
        <use
           style="fill:#000000;fill-opacity:0.50196078;stroke:#ffffff;stroke-opacity:1"
           height="30"
           width="30"
           transform="translate(6.625,0)"
           id="use4070"
           xlink:href="#path4068"
           y="0"
           x="0" />
        <path
           inkscape:connector-curvature="0"
           id="path4104"
           d="M 7.1741454,7.6815244 4.8889797,9.7556593"
           style="fill:#000000;fill-opacity:0.50196078;stroke:#ffffff;stroke-width:1.5;stroke-linecap:round;stroke-linejoin:round;stroke-miterlimit:4;stroke-opacity:1;stroke-dasharray:none" />
        <path
           inkscape:connector-curvature="0"
           id="path4106"
           d="M 8.3341745,8.0070478 7.3744048,10.634284"
           style="color:#000000;fill:#000000;fill-opacity:0.50196078;stroke:#ffffff;stroke-width:1.5;stroke-linecap:round;stroke-linejoin:round;stroke-miterlimit:4;stroke-opacity:1;stroke-dasharray:none;stroke-dashoffset:0;marker:none;visibility:visible;display:inline;overflow:visible;enable-background:accumulate" />
        <path
           inkscape:connector-curvature="0"
           id="path4110"
           d="m 10.743876,7.9483824 1.005473,2.6272366"
           style="color:#000000;fill:#000000;fill-opacity:0.50196078;stroke:#ffffff;stroke-width:1.5;stroke-linecap:round;stroke-linejoin:round;stroke-miterlimit:4;stroke-opacity:1;stroke-dasharray:none;stroke-dashoffset:0;marker:none;visibility:visible;display:inline;overflow:visible;enable-background:accumulate" />
        <path
           inkscape:connector-curvature="0"
           id="path4112"
           d="m 11.944203,7.6558347 1.828133,2.4059963"
           style="color:#000000;fill:#000000;fill-opacity:0.50196078;stroke:#ffffff;stroke-width:1.5;stroke-linecap:round;stroke-linejoin:round;stroke-miterlimit:4;stroke-opacity:1;stroke-dasharray:none;stroke-dashoffset:0;marker:none;visibility:visible;display:inline;overflow:visible;enable-background:accumulate" />
        <path
           inkscape:connector-curvature="0"
           id="path4131"
           d="m 9.5782584,8.098201 0,2.620387"
           style="color:#000000;fill:#000000;fill-opacity:0.50196078;stroke:#ffffff;stroke-width:1.5;stroke-linecap:round;stroke-linejoin:round;stroke-miterlimit:4;stroke-opacity:1;stroke-dasharray:none;stroke-dashoffset:0;marker:none;visibility:visible;display:inline;overflow:visible;enable-background:accumulate" />
      </g>
    </g>
    <path
       style="font-size:medium;font-style:normal;font-variant:normal;font-weight:normal;font-stretch:normal;text-indent:0;text-align:start;text-decoration:none;line-height:normal;letter-spacing:normal;word-spacing:normal;text-transform:none;direction:ltr;block-progression:tb;writing-mode:lr-tb;text-anchor:start;baseline-shift:baseline;color:#000000;fill:#000000;fill-opacity:0.50196081;stroke:#ffffff;stroke-width:1;marker:none;visibility:visible;display:inline;overflow:visible;enable-background:accumulate;font-family:Sans;-inkscape-font-specification:Sans;stroke-opacity:1;stroke-miterlimit:4;stroke-dasharray:none"
       d="m 33.875,1001 c -1.144217,0.026 -2.207379,0.2882 -3.15625,0.7188 -1.897742,0.861 -3.310248,2.2962 -4.375,3.75 -2.129505,2.9075 -3.03125,6.1249 -3.03125,6.125 l 3.84375,1.125 c 0,0 0.828807,-2.6786 2.4375,-4.875 0.804347,-1.0983 1.767511,-2.0089 2.78125,-2.4688 1.013739,-0.4599 2.050931,-0.5871 3.625,0.031 1.290904,0.5072 2.616301,1.9669 3.6875,4.2188 1.071199,2.2519 1.850747,5.1704 2.40625,8 0.20587,1.0486 0.261427,1.8182 0.40625,2.8125 l -2.34375,-3.625 -3.46875,2 0.09375,0.1875 7.65625,15.0625 2.0625,4.0313 0.96875,-2.625 0.09375,0.125 0,-0.3126 0.53125,-1.4374 L 53,1020.9062 49.25,1019.5 47.15625,1025 c -0.181976,-2.167 -0.519894,-5.074 -1.125,-8.1562 -0.594712,-3.0294 -1.448881,-6.2022 -2.75,-8.9376 -1.301119,-2.7353 -3.077652,-5.1755 -5.8125,-6.25 -1.225841,-0.4815 -2.449533,-0.6824 -3.59375,-0.6562 z"
       id="path6192"
       inkscape:connector-curvature="0" />
  </g>
</svg>
