<?xml version="1.0" encoding="UTF-8" standalone="no"?>
<!-- Created with Inkscape (http://www.inkscape.org/) -->

<svg
   xmlns:dc="http://purl.org/dc/elements/1.1/"
   xmlns:cc="http://creativecommons.org/ns#"
   xmlns:rdf="http://www.w3.org/1999/02/22-rdf-syntax-ns#"
   xmlns:svg="http://www.w3.org/2000/svg"
   xmlns="http://www.w3.org/2000/svg"
   xmlns:xlink="http://www.w3.org/1999/xlink"
   xmlns:sodipodi="http://sodipodi.sourceforge.net/DTD/sodipodi-0.dtd"
   xmlns:inkscape="http://www.inkscape.org/namespaces/inkscape"
   width="30"
   height="30"
   id="svg2"
   version="1.1"
   inkscape:version="0.48.4 r9939"
   sodipodi:docname="panda.svg"
   inkscape:export-filename="/run/media/ben/Yard/Sometile Grid/panda.png"
   inkscape:export-xdpi="90"
   inkscape:export-ydpi="90">
  <defs
     id="defs4" />
  <sodipodi:namedview
     id="base"
     pagecolor="#ffffff"
     bordercolor="#666666"
     borderopacity="1.0"
     inkscape:pageopacity="0.0"
     inkscape:pageshadow="2"
     inkscape:zoom="4"
     inkscape:cx="40.143148"
     inkscape:cy="6.7298874"
     inkscape:document-units="px"
     inkscape:current-layer="layer2"
     showgrid="false"
     borderlayer="false"
     inkscape:showpageshadow="false"
     showborder="true"
     inkscape:window-width="1366"
     inkscape:window-height="718"
     inkscape:window-x="0"
     inkscape:window-y="28"
     inkscape:window-maximized="1"
     showguides="false"
     inkscape:guide-bbox="true">
    <sodipodi:guide
       orientation="1,0"
       position="10.783378,31.731417"
       id="guide4371" />
  </sodipodi:namedview>
  <metadata
     id="metadata7">
    <rdf:RDF>
      <cc:Work
         rdf:about="">
        <dc:format>image/svg+xml</dc:format>
        <dc:type
           rdf:resource="http://purl.org/dc/dcmitype/StillImage" />
        <dc:title></dc:title>
      </cc:Work>
    </rdf:RDF>
  </metadata>
  <g
     inkscape:label="(grass)"
     inkscape:groupmode="layer"
     id="layer1"
     transform="translate(0,-1022.3622)"
     sodipodi:insensitive="true"
     style="display:none">
    <image
       y="1022.3622"
       x="0"
       id="image3519"
       xlink:href="file:///run/media/ben/Yard/Sometile%20Grid/grass.png"
       height="30"
       width="30" />
  </g>
  <g
     inkscape:groupmode="layer"
     id="layer3"
     inkscape:label="body"
     sodipodi:insensitive="true"
     style="display:inline">
    <path
       transform="matrix(0.72354606,0,0,1.2451704,13.459537,-6.2042337)"
       d="m 12.197592,24.785088 a 3.9774756,3.8890872 0 1 1 -7.954951,0 3.9774756,3.8890872 0 1 1 7.954951,0 z"
       sodipodi:ry="3.8890872"
       sodipodi:rx="3.9774756"
       sodipodi:cy="24.785088"
       sodipodi:cx="8.2201166"
       id="path4733"
       style="color:#000000;fill:#0c1e2d;fill-opacity:1;fill-rule:nonzero;stroke:#000000;stroke-width:1.05354357;stroke-linecap:round;stroke-linejoin:round;stroke-miterlimit:4;stroke-opacity:1;stroke-dasharray:none;stroke-dashoffset:0;marker:none;visibility:visible;display:inline;overflow:visible;enable-background:accumulate"
       sodipodi:type="arc" />
    <path
       style="color:#000000;fill:#0c1e2d;fill-opacity:1;fill-rule:nonzero;stroke:none;stroke-width:1;marker:none;visibility:visible;display:inline;overflow:visible;enable-background:accumulate"
       d="m 16.074143,9.5923861 c -7.2735147,0 -13.1874998,3.9172619 -13.1874998,8.7499999 0,1.578736 0.6490684,3.03374 1.75,4.3125 3.6664276,1.117049 7.8068168,1.78125 12.2187498,1.78125 3.569305,0 6.981689,-0.438303 10.09375,-1.1875 1.438899,-1.402491 2.28125,-3.080865 2.28125,-4.90625 0,-4.832738 -5.882735,-8.7499999 -13.15625,-8.7499999 z"
       id="path4712"
       inkscape:connector-curvature="0" />
    <path
       style="fill:#dae9f5;fill-opacity:1;stroke:none"
       d="m 20.855393,10.186136 c -0.05211,2.580195 -0.448706,5.576142 -1.875,7.3125 -2.248801,2.73767 -5.478807,3.811346 -7.5625,6.59375 1.755171,0.222066 3.569625,0.34375 5.4375,0.34375 3.569305,0 6.981689,-0.438303 10.09375,-1.1875 1.438899,-1.402491 2.28125,-3.080865 2.28125,-4.90625 0,-3.710529 -3.472354,-6.88372 -8.375,-8.15625 z"
       id="path4721"
       inkscape:connector-curvature="0" />
    <path
       id="path4719"
       d="m 16.074143,9.5923861 c -7.2735147,0 -13.1874998,3.9172619 -13.1874998,8.7499999 0,1.578736 0.6490684,3.03374 1.75,4.3125 3.6664276,1.117049 7.8068168,1.78125 12.2187498,1.78125 3.569305,0 6.981689,-0.438303 10.09375,-1.1875 1.438899,-1.402491 2.28125,-3.080865 2.28125,-4.90625 0,-4.832738 -5.882735,-8.7499999 -13.15625,-8.7499999 z"
       style="color:#000000;fill:none;stroke:#000000;stroke-width:1;stroke-miterlimit:4;stroke-opacity:1;stroke-dasharray:none;marker:none;visibility:visible;display:inline;overflow:visible;enable-background:accumulate"
       inkscape:connector-curvature="0" />
    <path
       sodipodi:type="arc"
       style="color:#000000;fill:#0c1e2d;fill-opacity:1;fill-rule:nonzero;stroke:#000000;stroke-width:1.05354357;stroke-linecap:round;stroke-linejoin:round;stroke-miterlimit:4;stroke-opacity:1;stroke-dasharray:none;stroke-dashoffset:0;marker:none;visibility:visible;display:inline;overflow:visible;enable-background:accumulate"
       id="path4717"
       sodipodi:cx="8.2201166"
       sodipodi:cy="24.785088"
       sodipodi:rx="3.9774756"
       sodipodi:ry="3.8890872"
       d="m 12.197592,24.785088 a 3.9774756,3.8890872 0 1 1 -7.954951,0 3.9774756,3.8890872 0 1 1 7.954951,0 z"
       transform="matrix(0.72354606,0,0,1.2451704,-0.9997251,-6.38101)" />
    <path
       transform="matrix(0.72354606,0,0,1.2451704,5.8752749,-6.38101)"
       d="m 12.197592,24.785088 a 3.9774756,3.8890872 0 1 1 -7.954951,0 3.9774756,3.8890872 0 1 1 7.954951,0 z"
       sodipodi:ry="3.8890872"
       sodipodi:rx="3.9774756"
       sodipodi:cy="24.785088"
       sodipodi:cx="8.2201166"
       id="path4729"
       style="color:#000000;fill:#0c1e2d;fill-opacity:1;fill-rule:nonzero;stroke:#000000;stroke-width:1.05354357;stroke-linecap:round;stroke-linejoin:round;stroke-miterlimit:4;stroke-opacity:1;stroke-dasharray:none;stroke-dashoffset:0;marker:none;visibility:visible;display:inline;overflow:visible;enable-background:accumulate"
       sodipodi:type="arc" />
    <path
       sodipodi:type="arc"
       style="color:#000000;fill:#0c1e2d;fill-opacity:1;fill-rule:nonzero;stroke:#000000;stroke-width:1.05354357;stroke-linecap:round;stroke-linejoin:round;stroke-miterlimit:4;stroke-opacity:1;stroke-dasharray:none;stroke-dashoffset:0;marker:none;visibility:visible;display:inline;overflow:visible;enable-background:accumulate"
       id="path4731"
       sodipodi:cx="8.2201166"
       sodipodi:cy="24.785088"
       sodipodi:rx="3.9774756"
       sodipodi:ry="3.8890872"
       d="m 12.197592,24.785088 a 3.9774756,3.8890872 0 1 1 -7.954951,0 3.9774756,3.8890872 0 1 1 7.954951,0 z"
       transform="matrix(0.72354606,0,0,1.2451704,18.639362,-6.38101)" />
  </g>
  <g
     inkscape:groupmode="layer"
     id="layer2"
     inkscape:label="head"
     sodipodi:insensitive="true"
     style="display:inline">
    <path
       sodipodi:type="arc"
       style="color:#000000;fill:#000000;fill-opacity:1;fill-rule:nonzero;stroke:none;stroke-width:1;marker:none;visibility:visible;display:inline;overflow:visible;enable-background:accumulate"
       id="path4705"
       sodipodi:cx="15.625"
       sodipodi:cy="8.5625"
       sodipodi:rx="2.8125"
       sodipodi:ry="3.1875"
       d="m 18.4375,8.5625 a 2.8125,3.1875 0 1 1 -5.625,0 2.8125,3.1875 0 1 1 5.625,0 z"
       transform="matrix(0.8062086,0.38789229,-0.39490342,0.79189512,6.663031,-7.2747634)" />
    <path
       transform="matrix(-0.8062086,0.38789229,0.39490342,0.79189512,12.344329,-7.2747634)"
       d="m 18.4375,8.5625 a 2.8125,3.1875 0 1 1 -5.625,0 2.8125,3.1875 0 1 1 5.625,0 z"
       sodipodi:ry="3.1875"
       sodipodi:rx="2.8125"
       sodipodi:cy="8.5625"
       sodipodi:cx="15.625"
       id="path4707"
       style="color:#000000;fill:#000000;fill-opacity:1;fill-rule:nonzero;stroke:none;stroke-width:1;marker:none;visibility:visible;display:inline;overflow:visible;enable-background:accumulate"
       sodipodi:type="arc" />
    <path
       sodipodi:type="arc"
       style="color:#000000;fill:#dae9f5;fill-opacity:1;fill-rule:nonzero;stroke:#000000;stroke-width:0.96609175;stroke-miterlimit:4;stroke-opacity:1;stroke-dasharray:none;marker:none;visibility:visible;display:inline;overflow:visible;enable-background:accumulate"
       id="path4688"
       sodipodi:cx="12.5"
       sodipodi:cy="19"
       sodipodi:rx="8.5"
       sodipodi:ry="7"
       d="M 21,19 A 8.5,7 0 1 1 4,19 8.5,7 0 1 1 21,19 z"
       transform="matrix(1,0,0,1.0714286,-3.2303932,-8.5368077)" />
    <g
       id="g4696"
       transform="translate(-1.4401019,-3.0002862)">
      <path
         transform="translate(0.97227183,0.53033009)"
         d="m 15.556349,13.648155 a 2.2097087,3.0052037 0 1 1 -4.419417,0 2.2097087,3.0052037 0 1 1 4.419417,0 z"
         sodipodi:ry="3.0052037"
         sodipodi:rx="2.2097087"
         sodipodi:cy="13.648155"
         sodipodi:cx="13.346641"
         id="path4692"
         style="color:#000000;fill:#0c1e2d;fill-opacity:1;fill-rule:nonzero;stroke:none;stroke-width:0.88599998;marker:none;visibility:visible;display:inline;overflow:visible;enable-background:accumulate"
         sodipodi:type="arc" />
      <path
         sodipodi:type="arc"
         style="color:#000000;fill:#000000;fill-opacity:1;fill-rule:nonzero;stroke:none;stroke-width:1;marker:none;visibility:visible;display:inline;overflow:visible;enable-background:accumulate"
         id="path4701"
         sodipodi:cx="14.18633"
         sodipodi:cy="13.16202"
         sodipodi:rx="0.44194174"
         sodipodi:ry="0.44194174"
         d="m 14.628272,13.16202 a 0.44194174,0.44194174 0 1 1 -0.883884,0 0.44194174,0.44194174 0 1 1 0.883884,0 z"
         transform="matrix(2.4,0,0,2.4,-19.684085,-18.161663)" />
    </g>
    <g
       transform="translate(-8.334393,-3.0002862)"
       id="use4699">
      <path
         sodipodi:type="arc"
         style="color:#000000;fill:#0c1e2d;fill-opacity:1;fill-rule:nonzero;stroke:none;stroke-width:0.88599998;marker:none;visibility:visible;display:inline;overflow:visible;enable-background:accumulate"
         id="path4737"
         sodipodi:cx="13.346641"
         sodipodi:cy="13.648155"
         sodipodi:rx="2.2097087"
         sodipodi:ry="3.0052037"
         d="m 15.556349,13.648155 a 2.2097087,3.0052037 0 1 1 -4.419417,0 2.2097087,3.0052037 0 1 1 4.419417,0 z"
         transform="translate(0.97227183,0.53033009)" />
      <path
         transform="matrix(2.4,0,0,2.4,-19.684085,-18.161663)"
         d="m 14.628272,13.16202 a 0.44194174,0.44194174 0 1 1 -0.883884,0 0.44194174,0.44194174 0 1 1 0.883884,0 z"
         sodipodi:ry="0.44194174"
         sodipodi:rx="0.44194174"
         sodipodi:cy="13.16202"
         sodipodi:cx="14.18633"
         id="path4739"
         style="color:#000000;fill:#000000;fill-opacity:1;fill-rule:nonzero;stroke:none;stroke-width:1;marker:none;visibility:visible;display:inline;overflow:visible;enable-background:accumulate"
         sodipodi:type="arc" />
    </g>
    <path
       sodipodi:type="arc"
       style="color:#000000;fill:#000000;fill-opacity:1;fill-rule:nonzero;stroke:none;stroke-width:1;marker:none;visibility:visible;display:inline;overflow:visible;enable-background:accumulate"
       id="path4703"
       sodipodi:cx="10.783378"
       sodipodi:cy="17.890797"
       sodipodi:rx="1.9887383"
       sodipodi:ry="1.4584078"
       d="m 12.772116,17.890797 a 1.9887383,1.4584078 0 1 1 -3.9774767,0 1.9887383,1.4584078 0 1 1 3.9774767,0 z"
       transform="translate(-1.5284903,-2.7351211)" />
  </g>
</svg>
