<?xml version="1.0" encoding="UTF-8" standalone="no"?>
<!-- Created with Inkscape (http://www.inkscape.org/) -->

<svg
   xmlns:dc="http://purl.org/dc/elements/1.1/"
   xmlns:cc="http://creativecommons.org/ns#"
   xmlns:rdf="http://www.w3.org/1999/02/22-rdf-syntax-ns#"
   xmlns:svg="http://www.w3.org/2000/svg"
   xmlns="http://www.w3.org/2000/svg"
   xmlns:xlink="http://www.w3.org/1999/xlink"
   xmlns:sodipodi="http://sodipodi.sourceforge.net/DTD/sodipodi-0.dtd"
   xmlns:inkscape="http://www.inkscape.org/namespaces/inkscape"
   width="30"
   height="30"
   id="svg2"
   version="1.1"
   inkscape:version="0.48.4 r9939"
   sodipodi:docname="walrus.svg"
   inkscape:export-filename="/run/media/ben/Yard/Sometile Grid/walrus.png"
   inkscape:export-xdpi="90"
   inkscape:export-ydpi="90">
  <defs
     id="defs4">
    <linearGradient
       inkscape:collect="always"
       id="linearGradient4054">
      <stop
         style="stop-color:#5c1f00;stop-opacity:1;"
         offset="0"
         id="stop4056" />
      <stop
         style="stop-color:#401500;stop-opacity:1"
         offset="1"
         id="stop4058" />
    </linearGradient>
    <linearGradient
       inkscape:collect="always"
       id="linearGradient4046">
      <stop
         style="stop-color:#802b00;stop-opacity:1;"
         offset="0"
         id="stop4048" />
      <stop
         style="stop-color:#5e2000;stop-opacity:1"
         offset="1"
         id="stop4050" />
    </linearGradient>
    <linearGradient
       inkscape:collect="always"
       xlink:href="#linearGradient4046"
       id="linearGradient4052"
       x1="7.9040947"
       y1="8.5692549"
       x2="7.9040947"
       y2="27.840714"
       gradientUnits="userSpaceOnUse"
       gradientTransform="translate(0.1767767,1022.7158)" />
    <linearGradient
       inkscape:collect="always"
       xlink:href="#linearGradient4054"
       id="linearGradient4060"
       x1="21.557007"
       y1="10.069151"
       x2="21.557007"
       y2="23.861702"
       gradientUnits="userSpaceOnUse"
       gradientTransform="translate(0.1767767,0.35355339)" />
  </defs>
  <sodipodi:namedview
     id="base"
     pagecolor="#4a8447"
     bordercolor="#666666"
     borderopacity="1.0"
     inkscape:pageopacity="0"
     inkscape:pageshadow="2"
     inkscape:zoom="4"
     inkscape:cx="27.647829"
     inkscape:cy="-0.84345082"
     inkscape:document-units="px"
     inkscape:current-layer="layer3"
     showgrid="false"
     inkscape:showpageshadow="false"
     borderlayer="true"
     inkscape:window-width="1366"
     inkscape:window-height="718"
     inkscape:window-x="0"
     inkscape:window-y="28"
     inkscape:window-maximized="1"
     showguides="false"
     inkscape:guide-bbox="true">
    <sodipodi:guide
       orientation="1,0"
       position="9.3581163,28.869844"
       id="guide4072" />
    <sodipodi:guide
       orientation="0,1"
       position="9.3581163,23.4375"
       id="guide4080" />
  </sodipodi:namedview>
  <metadata
     id="metadata7">
    <rdf:RDF>
      <cc:Work
         rdf:about="">
        <dc:format>image/svg+xml</dc:format>
        <dc:type
           rdf:resource="http://purl.org/dc/dcmitype/StillImage" />
        <dc:title></dc:title>
      </cc:Work>
    </rdf:RDF>
  </metadata>
  <g
     inkscape:groupmode="layer"
     id="layer2"
     inkscape:label="torso-b">
    <path
       style="color:#000000;fill:url(#linearGradient4060);fill-opacity:1;fill-rule:nonzero;stroke:#000000;stroke-width:1;stroke-linecap:butt;stroke-linejoin:round;stroke-miterlimit:4;stroke-opacity:1;stroke-dashoffset:0;marker:none;visibility:visible;display:inline;overflow:visible;enable-background:accumulate"
       d="m 12.958027,9.9473034 c -1.103664,-0.013676 -2.079374,0.1428366 -2.6875,0.6249996 -1.6216696,1.285771 -0.6562503,5.00673 -0.6562503,6.96875 0,3.924038 3.9883343,7.09375 8.9375003,7.09375 1.768295,0 3.423708,-0.424031 4.8125,-1.125 0.51381,0.919815 1.496557,1.53125 2.625,1.53125 1.659728,0 3,-1.340272 3,-3 0,-1.220112 -0.736703,-2.247966 -1.78125,-2.71875 0.188269,-0.573403 0.3125,-1.161112 0.3125,-1.78125 0,-3.924039 -4.019586,-7.09375 -8.96875,-7.09375 -1.546615,0 -3.75431,-0.4772057 -5.59375,-0.4999996 z"
       id="path4007"
       inkscape:connector-curvature="0" />
  </g>
  <g
     inkscape:label="torso-f"
     inkscape:groupmode="layer"
     id="layer1"
     transform="translate(0,-1022.3622)">
    <path
       style="color:#000000;fill:url(#linearGradient4052);fill-opacity:1;fill-rule:nonzero;stroke:#000000;stroke-width:1;stroke-linecap:butt;stroke-linejoin:round;stroke-miterlimit:4;stroke-opacity:1;stroke-dasharray:none;stroke-dashoffset:0;marker:none;visibility:visible;display:inline;overflow:visible;enable-background:accumulate"
       d="m 10.301777,1031.2158 c -4.4873139,0 -8.1250003,3.8056 -8.1250003,8.5 0,1.3226 0.2973403,2.5712 0.8125,3.6875 -1.0056682,0.7138 -1.65625,1.8604 -1.65625,3.1875 0,2.1757 1.7618134,3.9375 3.9375,3.9375 1.6534089,0 3.0406894,-1.0248 3.625,-2.4687 0.4600596,0.085 0.9230009,0.1562 1.4062503,0.1562 0.959189,0 1.864433,-0.1807 2.71875,-0.5 0.251355,1.9334 1.904376,3.4375 3.90625,3.4375 2.175687,0 3.9375,-1.7618 3.9375,-3.9375 0,-1.9253 -1.393135,-3.5317 -3.21875,-3.875 0.497122,-1.1003 0.78125,-2.3272 0.78125,-3.625 0,-4.6944 -3.637686,-8.5 -8.125,-8.5 z"
       id="path4000"
       inkscape:connector-curvature="0" />
    <path
       style="fill:none;stroke:#000000;stroke-width:1px;stroke-linecap:butt;stroke-linejoin:miter;stroke-opacity:1"
       d="m 1.6945437,1047.3482 2.048097,-0.9035"
       id="path4032"
       inkscape:connector-curvature="0"
       sodipodi:nodetypes="cc" />
    <path
       style="fill:none;stroke:#000000;stroke-width:1px;stroke-linecap:butt;stroke-linejoin:miter;stroke-opacity:1"
       d="m 2.8587572,1049.2624 1.580267,-1.2678"
       id="path4034"
       inkscape:connector-curvature="0"
       sodipodi:nodetypes="cc" />
    <path
       style="fill:none;stroke:#000000;stroke-width:1px;stroke-linecap:butt;stroke-linejoin:miter;stroke-opacity:1"
       d="m 5.5407377,1050.5124 0.1982233,-1.966"
       id="path4036"
       inkscape:connector-curvature="0"
       sodipodi:nodetypes="cc" />
    <path
       style="fill:none;stroke:#000000;stroke-width:1px;stroke-linecap:butt;stroke-linejoin:miter;stroke-opacity:1"
       d="m 20.676777,1048.4658 -1.9375,-0.875"
       id="path4038"
       inkscape:connector-curvature="0"
       sodipodi:nodetypes="cc" />
    <path
       style="fill:none;stroke:#000000;stroke-width:1px;stroke-linecap:butt;stroke-linejoin:miter;stroke-opacity:1"
       d="m 19.114277,1050.3408 -1.25,-1.1875"
       id="path4040"
       inkscape:connector-curvature="0"
       sodipodi:nodetypes="cc" />
    <path
       style="fill:none;stroke:#000000;stroke-width:1px;stroke-linecap:butt;stroke-linejoin:miter;stroke-opacity:1"
       d="m 16.364277,1050.9658 0,-1.3125"
       id="path4044"
       inkscape:connector-curvature="0"
       sodipodi:nodetypes="cc" />
  </g>
  <g
     inkscape:groupmode="layer"
     id="layer3"
     inkscape:label="head">
    <path
       style="color:#000000;fill:#4a1800;fill-opacity:1;fill-rule:nonzero;stroke:#000000;stroke-width:1;stroke-linecap:butt;stroke-linejoin:round;stroke-miterlimit:4;stroke-opacity:1;stroke-dasharray:none;stroke-dashoffset:0;marker:none;visibility:visible;display:inline;overflow:visible;enable-background:accumulate"
       d="m 9.5517767,1.4785534 c -3.0621227,0 -5.5625,2.4691273 -5.5625,5.53125 0,1.7314959 0.819071,3.2644946 2.0625,4.2812496 0.1146887,1.849088 1.6051377,2.59375 3.4831163,2.59375 1.877979,0 3.402195,-0.744662 3.516884,-2.59375 1.243429,-1.016755 2.03125,-2.5497537 2.03125,-4.2812496 0,-3.0621227 -2.469127,-5.53125 -5.5312503,-5.53125 z"
       id="path4063"
       inkscape:connector-curvature="0"
       sodipodi:nodetypes="sscscss" />
    <path
       style="font-size:medium;font-style:normal;font-variant:normal;font-weight:normal;font-stretch:normal;text-indent:0;text-align:start;text-decoration:none;line-height:normal;letter-spacing:normal;word-spacing:normal;text-transform:none;direction:ltr;block-progression:tb;writing-mode:lr-tb;text-anchor:start;baseline-shift:baseline;color:#000000;fill:#ffffff;fill-opacity:1;stroke:#000000;stroke-width:1;stroke-linejoin:round;stroke-miterlimit:4;stroke-opacity:1;stroke-dasharray:none;marker:none;visibility:visible;display:inline;overflow:visible;enable-background:accumulate;font-family:Sans;-inkscape-font-specification:Sans"
       d="m 7.3795267,9.3828586 c 0,0 -0.1624219,0.9101084 -0.4678303,1.9455184 -0.3054087,1.035409 -0.8804906,2.192488 -1.1452598,2.408055 -0.4926974,0.40114 -0.9249663,0.561087 -1.2422008,0.631919 -0.3172344,0.07083 -0.4330898,0.04343 -0.4330898,0.04343 -0.3960664,-0.0406 -0.7933704,0.282833 -0.8339405,0.678901 -0.04057,0.396069 0.2829107,0.793343 0.6789833,0.833874 0,0 0.3921441,0.0057 0.9045723,-0.108752 0.5124283,-0.114413 1.1835524,-0.354628 1.8701198,-0.91361 0.9144956,-0.744555 1.3069513,-2.020765 1.6393249,-3.147593 0.3323735,-1.126826 0.509089,-2.0962216 0.509089,-2.0962216 z"
       id="path4074"
       inkscape:connector-curvature="0"
       sodipodi:nodetypes="cssscscssscc" />
    <use
       x="0"
       y="0"
       xlink:href="#path4074"
       id="use4102"
       transform="matrix(-1,0,0,1,19.138533,0)"
       width="30"
       height="30" />
    <path
       style="color:#000000;fill:#802a00;fill-opacity:1;fill-rule:nonzero;stroke:#000000;stroke-width:1;stroke-linecap:butt;stroke-linejoin:round;stroke-miterlimit:4;stroke-opacity:1;stroke-dashoffset:0;marker:none;visibility:visible;display:inline;overflow:visible;enable-background:accumulate"
       d="m 15.051777,6.9160534 c 0,3.0468908 -2.469993,3.2043836 -5.516884,3.2043836 -3.0468908,0 -5.516884,-0.1574928 -5.516884,-3.2043836 0,-3.0468908 2.469993,-5.5168839 5.5168838,-5.5168839 3.0468912,0 5.5168842,2.4699931 5.5168842,5.5168839 z"
       id="path4082"
       inkscape:connector-curvature="0"
       sodipodi:nodetypes="sssss" />
    <path
       sodipodi:type="arc"
       style="color:#000000;fill:#000000;fill-opacity:1;fill-rule:nonzero;stroke:#000000;stroke-width:1;stroke-linecap:butt;stroke-linejoin:round;stroke-miterlimit:4;stroke-opacity:1;stroke-dasharray:none;stroke-dashoffset:0;marker:none;visibility:visible;display:inline;overflow:visible;enable-background:accumulate"
       id="path4068"
       sodipodi:cx="6.4081554"
       sodipodi:cy="5.3838453"
       sodipodi:rx="0.4861359"
       sodipodi:ry="1.1048543"
       d="m 6.8942913,5.3838453 a 0.4861359,1.1048543 0 1 1 -0.9722718,0 0.4861359,1.1048543 0 1 1 0.9722718,0 z"
       transform="translate(-0.1982233,0.35355339)" />
    <use
       x="0"
       y="0"
       xlink:href="#path4068"
       id="use4070"
       transform="translate(6.625,0)"
       width="30"
       height="30" />
    <path
       style="fill:none;stroke:#deca94;stroke-width:1.5;stroke-linecap:round;stroke-linejoin:round;stroke-miterlimit:4;stroke-opacity:1;stroke-dasharray:none"
       d="M 7.1741454,7.6815244 4.8889797,9.7556593"
       id="path4104"
       inkscape:connector-curvature="0" />
    <path
       style="color:#000000;fill:none;stroke:#deca94;stroke-width:1.5;stroke-linecap:round;stroke-linejoin:round;stroke-miterlimit:4;stroke-opacity:1;stroke-dasharray:none;stroke-dashoffset:0;marker:none;visibility:visible;display:inline;overflow:visible;enable-background:accumulate"
       d="M 8.3341745,8.0070478 7.3744048,10.634284"
       id="path4106"
       inkscape:connector-curvature="0" />
    <path
       style="color:#000000;fill:none;stroke:#deca94;stroke-width:1.5;stroke-linecap:round;stroke-linejoin:round;stroke-miterlimit:4;stroke-opacity:1;stroke-dasharray:none;stroke-dashoffset:0;marker:none;visibility:visible;display:inline;overflow:visible;enable-background:accumulate"
       d="m 10.743876,7.9483824 1.005473,2.6272366"
       id="path4110"
       inkscape:connector-curvature="0" />
    <path
       style="color:#000000;fill:none;stroke:#deca94;stroke-width:1.5;stroke-linecap:round;stroke-linejoin:round;stroke-miterlimit:4;stroke-opacity:1;stroke-dasharray:none;stroke-dashoffset:0;marker:none;visibility:visible;display:inline;overflow:visible;enable-background:accumulate"
       d="m 11.944203,7.6558347 1.828133,2.4059963"
       id="path4112"
       inkscape:connector-curvature="0" />
    <path
       style="color:#000000;fill:none;stroke:#deca94;stroke-width:1.5;stroke-linecap:round;stroke-linejoin:round;stroke-miterlimit:4;stroke-opacity:1;stroke-dasharray:none;stroke-dashoffset:0;marker:none;visibility:visible;display:inline;overflow:visible;enable-background:accumulate"
       d="m 9.5782584,8.098201 0,2.620387"
       id="path4131"
       inkscape:connector-curvature="0" />
  </g>
</svg>
