<?xml version="1.0" encoding="UTF-8" standalone="no"?>
<!-- Created with Inkscape (http://www.inkscape.org/) -->

<svg
   xmlns:dc="http://purl.org/dc/elements/1.1/"
   xmlns:cc="http://creativecommons.org/ns#"
   xmlns:rdf="http://www.w3.org/1999/02/22-rdf-syntax-ns#"
   xmlns:svg="http://www.w3.org/2000/svg"
   xmlns="http://www.w3.org/2000/svg"
   xmlns:xlink="http://www.w3.org/1999/xlink"
   xmlns:sodipodi="http://sodipodi.sourceforge.net/DTD/sodipodi-0.dtd"
   xmlns:inkscape="http://www.inkscape.org/namespaces/inkscape"
   width="30"
   height="42"
   id="svg2"
   version="1.1"
   inkscape:version="0.48.4 r9939"
   sodipodi:docname="zombie with tophat.svg"
   inkscape:export-filename="/run/media/ben/Yard/Sometile Grid/zombie with tophat.png"
   inkscape:export-xdpi="90"
   inkscape:export-ydpi="90">
  <defs
     id="defs4">
    <linearGradient
       id="linearGradient6231">
      <stop
         style="stop-color:#ffb72c;stop-opacity:1;"
         offset="0"
         id="stop6233" />
      <stop
         style="stop-color:#e39600;stop-opacity:1;"
         offset="1"
         id="stop6235" />
    </linearGradient>
    <linearGradient
       inkscape:collect="always"
       id="linearGradient6218">
      <stop
         style="stop-color:#1a1a1a;stop-opacity:1"
         offset="0"
         id="stop6220" />
      <stop
         style="stop-color:#393939;stop-opacity:1"
         offset="1"
         id="stop6222" />
    </linearGradient>
    <linearGradient
       inkscape:collect="always"
       id="linearGradient3928">
      <stop
         style="stop-color:#00c742;stop-opacity:1"
         offset="0"
         id="stop3930" />
      <stop
         style="stop-color:#008c2f;stop-opacity:1"
         offset="1"
         id="stop3932" />
    </linearGradient>
    <linearGradient
       id="linearGradient3920">
      <stop
         style="stop-color:#ffb72c;stop-opacity:1"
         offset="0"
         id="stop3922" />
      <stop
         style="stop-color:#df9300;stop-opacity:1"
         offset="1"
         id="stop3924" />
    </linearGradient>
    <linearGradient
       inkscape:collect="always"
       xlink:href="#linearGradient3920"
       id="linearGradient3926"
       x1="20.300226"
       y1="23.266558"
       x2="20.300226"
       y2="42.184517"
       gradientUnits="userSpaceOnUse"
       gradientTransform="matrix(0.625,0,0,0.625,0,18.136719)" />
    <linearGradient
       inkscape:collect="always"
       xlink:href="#linearGradient3928"
       id="linearGradient3934"
       x1="23.514376"
       y1="3.0141144"
       x2="23.514376"
       y2="31.504637"
       gradientUnits="userSpaceOnUse"
       gradientTransform="matrix(0.625,0,0,0.625,0,1022.4989)" />
    <linearGradient
       inkscape:collect="always"
       xlink:href="#linearGradient3928"
       id="linearGradient5531"
       gradientUnits="userSpaceOnUse"
       gradientTransform="matrix(0.625,0,0,0.625,0,1021.9989)"
       x1="23.514376"
       y1="3.0141144"
       x2="23.514376"
       y2="31.504637" />
    <linearGradient
       inkscape:collect="always"
       xlink:href="#linearGradient3920"
       id="linearGradient5533"
       gradientUnits="userSpaceOnUse"
       gradientTransform="matrix(0.625,0,0,0.625,0,17.636719)"
       x1="20.300226"
       y1="23.266558"
       x2="20.300226"
       y2="42.184517" />
    <linearGradient
       inkscape:collect="always"
       xlink:href="#linearGradient6218"
       id="linearGradient6224"
       x1="15.127286"
       y1="-2.4391506"
       x2="15.127286"
       y2="-15.108346"
       gradientUnits="userSpaceOnUse" />
    <linearGradient
       inkscape:collect="always"
       xlink:href="#linearGradient6231"
       id="linearGradient6237"
       x1="11.5"
       y1="-6.40625"
       x2="23.875"
       y2="-6.40625"
       gradientUnits="userSpaceOnUse" />
    <linearGradient
       inkscape:collect="always"
       xlink:href="#linearGradient6218"
       id="linearGradient6244"
       gradientUnits="userSpaceOnUse"
       x1="15.127286"
       y1="-2.4391506"
       x2="15.127286"
       y2="-15.108346" />
    <linearGradient
       inkscape:collect="always"
       xlink:href="#linearGradient6231"
       id="linearGradient6246"
       gradientUnits="userSpaceOnUse"
       x1="11.5"
       y1="-6.40625"
       x2="23.875"
       y2="-6.40625" />
  </defs>
  <sodipodi:namedview
     id="base"
     pagecolor="#ffffff"
     bordercolor="#666666"
     borderopacity="1.0"
     inkscape:pageopacity="0.0"
     inkscape:pageshadow="2"
     inkscape:zoom="2.8284271"
     inkscape:cx="29.69024"
     inkscape:cy="25.214818"
     inkscape:document-units="px"
     inkscape:current-layer="layer7"
     showgrid="false"
     borderlayer="true"
     inkscape:showpageshadow="false"
     showguides="false"
     inkscape:guide-bbox="true"
     inkscape:window-width="1366"
     inkscape:window-height="718"
     inkscape:window-x="0"
     inkscape:window-y="28"
     inkscape:window-maximized="1">
    <sodipodi:guide
       orientation="0,1"
       position="105,17"
       id="guide2985" />
    <sodipodi:guide
       orientation="1,0"
       position="24,61.5"
       id="guide2987" />
  </sodipodi:namedview>
  <metadata
     id="metadata7">
    <rdf:RDF>
      <cc:Work
         rdf:about="">
        <dc:format>image/svg+xml</dc:format>
        <dc:type
           rdf:resource="http://purl.org/dc/dcmitype/StillImage" />
        <dc:title></dc:title>
      </cc:Work>
    </rdf:RDF>
  </metadata>
  <g
     inkscape:groupmode="layer"
     id="layer2"
     inkscape:label="body"
     transform="translate(0,-6)"
     style="display:inline"
     sodipodi:insensitive="true">
    <path
       inkscape:connector-curvature="0"
       style="color:#000000;fill:#00b13b;fill-opacity:1;fill-rule:nonzero;stroke:#005d1f;stroke-width:1;stroke-miterlimit:4;stroke-opacity:1;stroke-dasharray:none;marker:none;visibility:visible;display:inline;overflow:visible;enable-background:accumulate"
       d="m 6.777344,36.601563 -2.695313,2.832031 c -0.0067,-7.1e-5 -0.01279,0 -0.01953,0 -1.035534,0 -1.875,0.839466 -1.875,1.875 0,1.035534 0.839466,1.875 1.875,1.875 1.028796,0 1.864174,-0.829235 1.875,-1.855469 7.1e-5,-0.0067 0,-0.01279 0,-0.01953 L 8.691407,38.41797 6.777345,36.601564 z"
       id="rect3827" />
    <path
       inkscape:connector-curvature="0"
       id="path3838"
       d="m 23.222656,36.601563 2.695313,2.832031 c 0.0067,-7.1e-5 0.01279,0 0.01953,0 1.035534,0 1.875,0.839466 1.875,1.875 0,1.035534 -0.839466,1.875 -1.875,1.875 -1.028796,0 -1.864174,-0.829235 -1.875,-1.855469 -7.1e-5,-0.0067 0,-0.01279 0,-0.01953 l -2.753906,-2.890625 1.914062,-1.816406 z"
       style="color:#000000;fill:#00b13b;fill-opacity:1;fill-rule:nonzero;stroke:#005d1f;stroke-width:1;stroke-miterlimit:4;stroke-opacity:1;stroke-dasharray:none;marker:none;visibility:visible;display:inline;overflow:visible;enable-background:accumulate" />
    <path
       style="color:#000000;fill:#2d4497;fill-opacity:1;fill-rule:nonzero;stroke:none;stroke-width:1;marker:none;visibility:visible;display:inline;overflow:visible;enable-background:accumulate"
       d="m 10,40.46875 0,7.03125 4.375,0 0,-1.25 c 0,0 -3.66e-4,-0.04844 0,-0.05859 0.0056,-0.153449 0.06791,-1.362381 0.625,-1.875 0.557087,0.512619 0.619463,1.721551 0.625,1.875 3.66e-4,0.01016 0,0.05859 0,0.05859 l 0,1.25 4.375,0 0,-7.03125 z"
       id="rect3847"
       inkscape:connector-curvature="0"
       sodipodi:nodetypes="cccccccccccc" />
    <path
       style="color:#000000;fill:url(#linearGradient5533);fill-opacity:1;stroke:#b57800;stroke-width:1;stroke-linejoin:miter;stroke-miterlimit:4;stroke-opacity:1;stroke-dasharray:none;marker:none;visibility:visible;display:inline;overflow:visible;enable-background:accumulate"
       d="m 9.296875,32.324219 0,1.210937 -4.628906,3.925782 0.292969,0.332031 1.875,-0.46875 -1.25,1.230469 0.78125,0.898437 1.601562,-0.761719 -0.917969,1.582032 0.546875,0.644531 1.699219,-1.445313 0,4.492188 0.625,0 0.625,-1.71875 0.585937,1.71875 1.035157,0 0.527343,-2.03125 0.625,2.03125 1.054688,0 0.546875,-2.1875 0.3125,2.1875 1.308594,0 1.269531,-2.226563 0.449219,2.226563 0.800781,0 0.507812,-1.679688 0.585938,1.679688 0.546875,0 0,-4.492188 1.699219,1.445313 0.136718,-0.15625 L 22.148437,39.277344 23.183594,40 l 0.644531,-0.761719 -0.507813,-1.679687 1.425782,0.585937 0.585937,-0.683593 -4.628906,-3.925782 0,-1.210937 -5.703125,0 -5.703125,0 z"
       id="rect3822"
       inkscape:connector-curvature="0" />
  </g>
  <g
     inkscape:label="head"
     inkscape:groupmode="layer"
     id="layer1"
     transform="translate(0,-1010.3622)"
     style="display:inline"
     sodipodi:insensitive="true">
    <path
       style="color:#000000;fill:#eb4400;fill-opacity:1;stroke:none;stroke-width:1;marker:none;visibility:visible;display:inline;overflow:visible;enable-background:accumulate"
       d="m 6.944222,1035.8203 c 0.130997,-0.1712 0.272989,-0.3295 0.351562,-0.5468 0.102851,-0.2846 0.153973,-0.6035 0.15625,-0.9375 0.0023,-0.334 -0.04577,-0.6855 -0.15625,-1.0352 -0.110484,-0.3497 -0.275003,-0.6655 -0.46875,-0.9375 -0.193746,-0.272 -0.416405,-0.5098 -0.664062,-0.6836 -0.247658,-0.1738 -0.509032,-0.2966 -0.78125,-0.3516 -0.02587,-0.01 -0.05218,0.01 -0.07813,0 -0.0013,0.054 -0.01953,0.1026 -0.01953,0.1563 0,1.6154 0.638632,3.0829 1.660156,4.3359 z"
       id="path3879"
       inkscape:connector-curvature="0" />
    <path
       style="color:#000000;fill:#eb4400;fill-opacity:1;stroke:none;stroke-width:1;marker:none;visibility:visible;display:inline;overflow:visible;enable-background:accumulate"
       d="m 12.03125,1024.0692 c 0.0529,0.3874 0.08641,0.7863 0.253906,1.1328 0.237201,0.4907 0.571958,0.918 0.996094,1.2891 0.424136,0.3711 0.943101,0.6714 1.503906,0.8789 0.560805,0.2075 1.169198,0.332 1.816406,0.332 0.647209,0 1.255602,-0.1245 1.816407,-0.332 0.560805,-0.2075 1.07977,-0.5078 1.503906,-0.8789 0.384447,-0.3364 0.665645,-0.7356 0.898437,-1.1719 -1.648401,-1.0072 -3.67399,-1.6406 -5.898437,-1.6406 -1.01448,0 -1.970796,0.1597 -2.890625,0.3906 z"
       id="path2989"
       inkscape:connector-curvature="0" />
    <path
       style="color:#000000;fill:#eb4400;fill-opacity:1;stroke:none;stroke-width:1;marker:none;visibility:visible;display:inline;overflow:visible;enable-background:accumulate"
       d="m 22.252796,1036.4978 c -0.109144,-0.1737 -0.251959,-0.3268 -0.429688,-0.4297 -0.198008,-0.1147 -0.414113,-0.1585 -0.644531,-0.1563 -0.230418,0 -0.468145,0.05 -0.703125,0.1563 -0.46996,0.213 -0.928881,0.6174 -1.25,1.1719 -0.32112,0.5544 -0.459238,1.166 -0.410156,1.6796 0.02454,0.2569 0.102115,0.4827 0.214843,0.6837 0.0138,0.024 0.0435,0.035 0.05859,0.059 0.451274,-0.4982 0.842125,-1.0469 1.074219,-1.6797 0.788156,-0.4059 1.474799,-0.9202 2.089844,-1.4843 z"
       id="path3889"
       inkscape:connector-curvature="0" />
    <path
       style="color:#000000;fill:url(#linearGradient5531);fill-opacity:1;stroke:#005d1f;stroke-width:1;stroke-linecap:butt;stroke-linejoin:round;stroke-miterlimit:4;stroke-opacity:1;stroke-dasharray:none;stroke-dashoffset:2.3;marker:none;visibility:visible;display:inline;overflow:visible;enable-background:accumulate"
       d="m 12.109375,1023.7958 c -3.949356,0.9916 -6.847842,3.9124 -6.933594,7.4218 0.02594,0 0.05226,-0.01 0.07813,0 0.272219,0.055 0.533593,0.1778 0.78125,0.3516 0.247658,0.1738 0.470317,0.4115 0.664063,0.6836 0.193746,0.2721 0.358265,0.5878 0.46875,0.9375 0.110484,0.3497 0.158527,0.7012 0.15625,1.0352 -0.0023,0.334 -0.0534,0.6529 -0.15625,0.9375 -0.07857,0.2173 -0.220565,0.3757 -0.351563,0.5468 0.767583,0.9416 1.732341,1.7762 2.910156,2.3828 0.75784,2.0661 2.827237,3.5547 5.273438,3.5547 1.697035,0 3.176979,-0.7463 4.199219,-1.875 -0.01509,-0.024 -0.04479,-0.034 -0.05859,-0.059 -0.112729,-0.2009 -0.190303,-0.4267 -0.214844,-0.6836 -0.04908,-0.5136 0.08904,-1.1252 0.410156,-1.6796 0.32112,-0.5545 0.78004,-0.9589 1.25,-1.1719 0.23498,-0.1065 0.472707,-0.154 0.703125,-0.1563 0.230419,0 0.446524,0.042 0.644532,0.1563 0.177728,0.1029 0.320544,0.256 0.429687,0.4297 1.527266,-1.401 2.480469,-3.2174 2.480469,-5.2344 0,-2.6003 -1.565018,-4.8736 -3.945313,-6.3281 -0.232792,0.4363 -0.51399,0.8355 -0.898437,1.1718 -0.424136,0.3712 -0.943101,0.6714 -1.503906,0.879 -0.560805,0.2075 -1.169198,0.332 -1.816407,0.332 -0.647208,0 -1.255601,-0.1245 -1.816406,-0.332 -0.560805,-0.2076 -1.07977,-0.5078 -1.503906,-0.879 -0.424136,-0.3711 -0.758893,-0.7983 -0.996094,-1.289 -0.167497,-0.3465 -0.201003,-0.7454 -0.253906,-1.1328 z"
       id="path3884"
       inkscape:connector-curvature="0" />
    <g
       id="g3769"
       transform="matrix(0.625,0,0,0.625,0,394.27254)">
      <path
         transform="translate(2.25,1006.6122)"
         d="m 20.5,12.75 c 0,3.175637 -2.126647,5.75 -4.75,5.75 C 13.126647,18.5 11,15.925637 11,12.75 11,9.5743627 13.126647,7 15.75,7 c 2.623353,0 4.75,2.5743627 4.75,5.75 z"
         sodipodi:ry="5.75"
         sodipodi:rx="4.75"
         sodipodi:cy="12.75"
         sodipodi:cx="15.75"
         id="path3767"
         style="color:#000000;fill:#d4ffbd;fill-opacity:1;fill-rule:nonzero;stroke:#005d1f;stroke-width:1;stroke-linecap:butt;stroke-linejoin:round;stroke-miterlimit:4;stroke-opacity:1;stroke-dasharray:none;stroke-dashoffset:2.3;marker:none;visibility:visible;display:inline;overflow:visible;enable-background:accumulate"
         sodipodi:type="arc" />
      <path
         sodipodi:type="arc"
         style="color:#000000;fill:#000000;fill-opacity:1;fill-rule:nonzero;stroke:#eb4400;stroke-width:1;stroke-linecap:butt;stroke-linejoin:round;stroke-miterlimit:4;stroke-opacity:1;stroke-dasharray:none;stroke-dashoffset:2.3;marker:none;visibility:visible;display:inline;overflow:visible;enable-background:accumulate"
         id="path3774"
         sodipodi:cx="16.440233"
         sodipodi:cy="13.351768"
         sodipodi:rx="2.3864853"
         sodipodi:ry="2.3864853"
         d="m 18.826719,13.351768 c 0,1.318019 -1.068466,2.386485 -2.386486,2.386485 -1.318019,0 -2.386485,-1.068466 -2.386485,-2.386485 0,-1.31802 1.068466,-2.386486 2.386485,-2.386486 1.31802,0 2.386486,1.068466 2.386486,2.386486 z"
         transform="translate(0,1004.3622)" />
      <path
         style="fill:none;stroke:#eb4400;stroke-width:1px;stroke-linecap:butt;stroke-linejoin:miter;stroke-opacity:1"
         d="m 17.854446,16.622137 0.618719,1.767766 -1.149049,1.679379"
         id="path3776"
         inkscape:connector-curvature="0"
         transform="translate(0,1004.3622)" />
      <path
         style="fill:none;stroke:#eb4400;stroke-width:1px;stroke-linecap:butt;stroke-linejoin:miter;stroke-opacity:1"
         d="m 19.180271,15.207923 1.060661,1.325825 1.325825,-0.441942"
         id="path3778"
         inkscape:connector-curvature="0"
         transform="translate(0,1004.3622)" />
      <path
         style="fill:none;stroke:#eb4400;stroke-width:1px;stroke-linecap:butt;stroke-linejoin:miter;stroke-opacity:1"
         d="m 19.79899,12.644661 0.618718,-0.53033 0.618719,0.441942"
         id="path3780"
         inkscape:connector-curvature="0"
         transform="translate(0,1004.3622)" />
      <path
         style="fill:none;stroke:#eb4400;stroke-width:1px;stroke-linecap:butt;stroke-linejoin:miter;stroke-opacity:1"
         d="m 15.875,16.625 -0.75,0.875 0.5625,1"
         id="path3782"
         inkscape:connector-curvature="0"
         transform="translate(0,1004.3622)"
         sodipodi:nodetypes="ccc" />
    </g>
    <use
       x="0"
       y="0"
       xlink:href="#g3769"
       id="use3772"
       transform="matrix(-1,0,0,1,30.15625,0)"
       width="48"
       height="48" />
    <path
       style="color:#000000;fill:#000000;fill-opacity:1;fill-rule:nonzero;stroke:#005d1f;stroke-width:0.625;stroke-linecap:butt;stroke-linejoin:round;stroke-miterlimit:4;stroke-opacity:1;stroke-dasharray:none;stroke-dashoffset:2.3;marker:none;visibility:visible;display:inline;overflow:visible;enable-background:accumulate"
       d="m 15,1035.5341 c -1.966991,0 -3.554688,1.1356 -3.554688,2.539 0,0.2293 0.03743,0.4528 0.117188,0.6641 l 6.875,0 c 0.07976,-0.2113 0.117187,-0.4348 0.117187,-0.6641 0,-1.4034 -1.587696,-2.539 -3.554687,-2.539 z"
       id="path3803"
       inkscape:connector-curvature="0" />
    <path
       style="color:#000000;fill:none;stroke:#005d1f;stroke-width:0.625;stroke-linecap:butt;stroke-linejoin:round;stroke-miterlimit:4;stroke-opacity:1;stroke-dasharray:none;stroke-dashoffset:2.3;marker:none;visibility:visible;display:inline;overflow:visible;enable-background:accumulate"
       d="m 11.972656,1039.4012 c 0.626086,0.729 1.741356,1.211 3.027344,1.211 1.287183,0 2.421139,-0.4809 3.046875,-1.211"
       id="path3815"
       inkscape:connector-curvature="0"
       sodipodi:nodetypes="csc" />
  </g>
  <g
     inkscape:groupmode="layer"
     id="layer6"
     inkscape:label="outline"
     style="display:inline"
     sodipodi:insensitive="true"
     transform="translate(0,12)">
    <path
       style="color:#000000;fill:none;stroke:#000000;stroke-width:1;stroke-linejoin:miter;stroke-opacity:1;marker:none;visibility:visible;display:inline;overflow:visible;enable-background:accumulate"
       d="m 14.9375,1.3125 c -0.968958,0 -1.899526,0.1607341 -2.78125,0.375 C 12.14471,1.600845 12.13677,1.5237201 12.125,1.4375 8.175644,2.4291 5.273252,5.33435 5.1875,8.84375 c 0.02594,0 0.03663,-0.01 0.0625,0 0.1076659,0.073675 0.022075,0.1986724 0.03125,0.28125 0,1.554876 0.6072114,2.966065 1.5625,4.1875 -0.00925,0.01188 -0.02208,0.01927 -0.03125,0.03125 0.036469,0.04474 0.087639,0.08076 0.125,0.125 0.6569286,0.7779 1.4359725,1.481148 2.375,2.03125 l 0,0.03125 -4.65625,3.9375 0.3125,0.3125 0.90625,-0.21875 -1.78125,1.875 c -0.0067,-7.1e-5 -0.02451,0 -0.03125,0 -1.035534,0 -1.875,0.839466 -1.875,1.875 0,1.035534 0.839466,1.875 1.875,1.875 1.028796,0 1.864174,-0.848766 1.875,-1.875 l 1.34375,-1.4375 -0.21875,0.40625 0.53125,0.625 1.71875,-1.4375 0,4.5 0.625,0 L 10,25.8125 10,29.5 l 4.375,0 0,-1.25 c 0,0 -3.66e-4,-0.05235 0,-0.0625 0.0056,-0.153449 0.06791,-1.362381 0.625,-1.875 0.557087,0.512619 0.619463,1.721551 0.625,1.875 3.66e-4,0.01016 0,0.0625 0,0.0625 l 0,1.25 4.375,0 0,-3.96875 0.15625,0.4375 0.53125,0 0,-4.5 1.71875,1.4375 0.125,-0.15625 -0.375,-1.4375 1.90625,2 c 0.01083,1.026234 0.846204,1.875 1.875,1.875 1.035534,0 1.875,-0.839466 1.875,-1.875 0,-1.035534 -0.839466,-1.875 -1.875,-1.875 -0.0067,0 -0.02455,-7.1e-5 -0.03125,0 l -1.25,-1.3125 0.09375,0.03125 0.59375,-0.6875 -4.625,-3.9375 0,-0.21875 c 0.55555,-0.346744 1.069966,-0.764425 1.53125,-1.1875 0.03833,0.04551 0.09389,0.07548 0.125,0.125 1.527266,-1.401 2.46875,-3.233 2.46875,-5.25 0,-2.6003 -1.557205,-4.858 -3.9375,-6.3125 -0.04603,0.086263 -0.106015,0.1668368 -0.15625,0.25 -1.63753,-0.986197 -3.614767,-1.625 -5.8125,-1.625 z"
       id="path5470"
       inkscape:connector-curvature="0" />
  </g>
  <g
     inkscape:groupmode="layer"
     id="layer7"
     inkscape:label="tophat"
     transform="translate(0,12)">
    <g
       id="g6239"
       transform="matrix(0.99693645,0.07821581,-0.07821581,0.99693645,-2.0291076,4.1075347)">
      <path
         inkscape:connector-curvature="0"
         id="path6212"
         d="m 11.5,-15.96875 0,10.09375 c -2.1523709,0.5695471 -3.5625,1.4080346 -3.5625,2.375 0,1.7150959 4.328805,3.09375 9.65625,3.09375 5.327445,0 9.65625,-1.3786541 9.65625,-3.09375 0,-0.936283 -1.339407,-1.7431336 -3.375,-2.3125 l 0,-10.15625 -12.375,0 z"
         style="color:#000000;fill:url(#linearGradient6244);fill-opacity:1;fill-rule:nonzero;stroke:#000000;stroke-width:1;stroke-linecap:butt;stroke-linejoin:miter;stroke-miterlimit:4;stroke-opacity:1;stroke-dasharray:none;stroke-dashoffset:0;marker:none;visibility:visible;display:inline;overflow:visible;enable-background:accumulate" />
      <path
         id="rect6226"
         d="m 11.5,-7.40625 0,2 12.375,0 0,-2 -12.375,0 z"
         style="color:#000000;fill:url(#linearGradient6246);fill-opacity:1;fill-rule:nonzero;stroke:none;stroke-width:1;marker:none;visibility:visible;display:inline;overflow:visible;enable-background:accumulate"
         inkscape:connector-curvature="0" />
      <path
         style="color:#000000;fill:none;stroke:#000000;stroke-width:1;stroke-linecap:butt;stroke-linejoin:miter;stroke-miterlimit:4;stroke-opacity:1;stroke-dashoffset:0;marker:none;visibility:visible;display:inline;overflow:visible;enable-background:accumulate"
         d="m 11.490485,-3.2340183 0,-12.7279227 12.374368,0 0,12.7279227"
         id="path6215"
         inkscape:connector-curvature="0"
         sodipodi:nodetypes="cccc" />
    </g>
  </g>
</svg>
