<?xml version="1.0" encoding="UTF-8" standalone="no"?>
<!-- Created with Inkscape (http://www.inkscape.org/) -->

<svg
   xmlns:dc="http://purl.org/dc/elements/1.1/"
   xmlns:cc="http://creativecommons.org/ns#"
   xmlns:rdf="http://www.w3.org/1999/02/22-rdf-syntax-ns#"
   xmlns:svg="http://www.w3.org/2000/svg"
   xmlns="http://www.w3.org/2000/svg"
   xmlns:xlink="http://www.w3.org/1999/xlink"
   xmlns:sodipodi="http://sodipodi.sourceforge.net/DTD/sodipodi-0.dtd"
   xmlns:inkscape="http://www.inkscape.org/namespaces/inkscape"
   width="86"
   height="168"
   id="svg2"
   version="1.1"
   inkscape:version="0.48.4 r9939"
   sodipodi:docname="mount.svg"
   inkscape:export-filename="/run/media/ben/Yard/Go Hug a Panda/howto/mount.png"
   inkscape:export-xdpi="90"
   inkscape:export-ydpi="90">
  <defs
     id="defs4">
    <linearGradient
       inkscape:collect="always"
       id="linearGradient4054">
      <stop
         style="stop-color:#5c1f00;stop-opacity:1;"
         offset="0"
         id="stop4056" />
      <stop
         style="stop-color:#401500;stop-opacity:1"
         offset="1"
         id="stop4058" />
    </linearGradient>
    <linearGradient
       inkscape:collect="always"
       id="linearGradient4046">
      <stop
         style="stop-color:#802b00;stop-opacity:1;"
         offset="0"
         id="stop4048" />
      <stop
         style="stop-color:#5e2000;stop-opacity:1"
         offset="1"
         id="stop4050" />
    </linearGradient>
    <linearGradient
       inkscape:collect="always"
       xlink:href="#linearGradient4046"
       id="linearGradient4052"
       x1="7.9040947"
       y1="8.5692549"
       x2="7.9040947"
       y2="27.840714"
       gradientUnits="userSpaceOnUse"
       gradientTransform="translate(0.1767767,1022.7158)" />
    <linearGradient
       inkscape:collect="always"
       xlink:href="#linearGradient4054"
       id="linearGradient4060"
       x1="21.557007"
       y1="10.069151"
       x2="21.557007"
       y2="23.861702"
       gradientUnits="userSpaceOnUse"
       gradientTransform="translate(0.1767767,0.35355339)" />
    <linearGradient
       id="linearGradient3873">
      <stop
         id="stop3875"
         offset="0"
         style="stop-color:#e5b05e;stop-opacity:1;" />
      <stop
         id="stop3877"
         offset="1"
         style="stop-color:#dd962a;stop-opacity:1" />
    </linearGradient>
    <linearGradient
       id="linearGradient3881"
       inkscape:collect="always">
      <stop
         id="stop3883"
         offset="0"
         style="stop-color:#52360b;stop-opacity:1" />
      <stop
         id="stop3885"
         offset="1"
         style="stop-color:#231705;stop-opacity:1" />
    </linearGradient>
    <linearGradient
       inkscape:collect="always"
       xlink:href="#linearGradient3873"
       id="linearGradient3311"
       gradientUnits="userSpaceOnUse"
       x1="12.31631"
       y1="2.1576703"
       x2="12.31631"
       y2="14.134722" />
    <linearGradient
       inkscape:collect="always"
       xlink:href="#linearGradient3881"
       id="linearGradient3313"
       gradientUnits="userSpaceOnUse"
       gradientTransform="translate(0,0.07950487)"
       x1="13.022971"
       y1="0.27650613"
       x2="13.022971"
       y2="7.0829511" />
    <linearGradient
       id="linearGradient6075-7">
      <stop
         style="stop-color:#ffffff;stop-opacity:0;"
         offset="0"
         id="stop6077-7" />
      <stop
         id="stop6085-7"
         offset="0.1400056"
         style="stop-color:#ffffff;stop-opacity:0.49803922;" />
      <stop
         id="stop6083-48"
         offset="0.5"
         style="stop-color:#ffffff;stop-opacity:1;" />
      <stop
         style="stop-color:#ffffff;stop-opacity:0.49803922;"
         offset="0.86195856"
         id="stop6087-59" />
      <stop
         style="stop-color:#ffffff;stop-opacity:0;"
         offset="1"
         id="stop6079-0" />
    </linearGradient>
    <linearGradient
       id="linearGradient3873-4">
      <stop
         id="stop3875-9"
         offset="0"
         style="stop-color:#e5b05e;stop-opacity:1;" />
      <stop
         id="stop3877-6"
         offset="1"
         style="stop-color:#dd962a;stop-opacity:1" />
    </linearGradient>
    <linearGradient
       id="linearGradient3873-0-2">
      <stop
         style="stop-color:#e5b05e;stop-opacity:1;"
         offset="0"
         id="stop3875-5-3" />
      <stop
         style="stop-color:#dd962a;stop-opacity:1"
         offset="1"
         id="stop3877-7-00" />
    </linearGradient>
    <linearGradient
       id="linearGradient3873-00-3">
      <stop
         style="stop-color:#e5b05e;stop-opacity:1;"
         offset="0"
         id="stop3875-4-6" />
      <stop
         style="stop-color:#dd962a;stop-opacity:1"
         offset="1"
         id="stop3877-4-2" />
    </linearGradient>
    <linearGradient
       id="linearGradient3873-00">
      <stop
         style="stop-color:#e5b05e;stop-opacity:1;"
         offset="0"
         id="stop3875-4" />
      <stop
         style="stop-color:#dd962a;stop-opacity:1"
         offset="1"
         id="stop3877-4" />
    </linearGradient>
  </defs>
  <sodipodi:namedview
     id="base"
     pagecolor="#404040"
     bordercolor="#666666"
     borderopacity="1.0"
     inkscape:pageopacity="0"
     inkscape:pageshadow="2"
     inkscape:zoom="4"
     inkscape:cx="44.576637"
     inkscape:cy="75.088057"
     inkscape:document-units="px"
     inkscape:current-layer="layer3"
     showgrid="false"
     inkscape:showpageshadow="false"
     borderlayer="true"
     inkscape:window-width="1366"
     inkscape:window-height="718"
     inkscape:window-x="0"
     inkscape:window-y="28"
     inkscape:window-maximized="1"
     showguides="false"
     inkscape:guide-bbox="true"
     fit-margin-top="0"
     fit-margin-left="0"
     fit-margin-right="0"
     fit-margin-bottom="0">
    <sodipodi:guide
       orientation="1,0"
       position="35.165716,77.381243"
       id="guide4072" />
    <sodipodi:guide
       orientation="0,1"
       position="35.165716,71.948899"
       id="guide4080" />
  </sodipodi:namedview>
  <metadata
     id="metadata7">
    <rdf:RDF>
      <cc:Work
         rdf:about="">
        <dc:format>image/svg+xml</dc:format>
        <dc:type
           rdf:resource="http://purl.org/dc/dcmitype/StillImage" />
        <dc:title></dc:title>
      </cc:Work>
    </rdf:RDF>
  </metadata>
  <g
     inkscape:groupmode="layer"
     id="layer3"
     inkscape:label="layer"
     style="display:inline"
     transform="translate(25.8076,89.488606)">
    <g
       id="g10452"
       transform="matrix(3,0,0,3,-28.30668,-58.08459)">
      <path
         inkscape:connector-curvature="0"
         id="path4007"
         d="m 12.958027,9.9473034 c -1.103664,-0.013676 -2.079374,0.1428366 -2.6875,0.6249996 -1.6216696,1.285771 -0.6562503,5.00673 -0.6562503,6.96875 0,3.924038 3.9883343,7.09375 8.9375003,7.09375 1.768295,0 3.423708,-0.424031 4.8125,-1.125 0.51381,0.919815 1.496557,1.53125 2.625,1.53125 1.659728,0 3,-1.340272 3,-3 0,-1.220112 -0.736703,-2.247966 -1.78125,-2.71875 0.188269,-0.573403 0.3125,-1.161112 0.3125,-1.78125 0,-3.924039 -4.019586,-7.09375 -8.96875,-7.09375 -1.546615,0 -3.75431,-0.4772057 -5.59375,-0.4999996 z"
         style="color:#000000;fill:url(#linearGradient4060);fill-opacity:1;fill-rule:nonzero;stroke:#000000;stroke-width:1;stroke-linecap:butt;stroke-linejoin:round;stroke-miterlimit:4;stroke-opacity:1;stroke-dashoffset:0;marker:none;visibility:visible;display:inline;overflow:visible;enable-background:accumulate" />
      <g
         transform="translate(1.6647448,-9.8485153)"
         id="g5361">
        <path
           inkscape:connector-curvature="0"
           id="path5359"
           d="m 9.8209711,19.647779 -3.6106922,0 0,1.592821 c 0,1.425779 0.7757216,2.580371 1.7413267,2.580371 l 0.1280388,0 c 0.9656051,0 1.7413267,-1.154592 1.7413267,-2.580371 l 0,-1.592821 z"
           style="color:#000000;fill:#dd962a;fill-opacity:1;fill-rule:nonzero;stroke:#000000;stroke-width:0.84403253;stroke-miterlimit:4;stroke-opacity:1;stroke-dasharray:none;marker:none;visibility:visible;display:inline;overflow:visible;enable-background:accumulate" />
        <path
           id="rect5354"
           d="m 7.9375,14.84375 c -1.1783606,0 -2.125,1.132613 -2.125,2.53125 l 0,2.3125 4.40625,0 0,-2.3125 c 0,-1.398637 -0.9466394,-2.53125 -2.125,-2.53125 l -0.15625,0 z"
           style="color:#000000;fill:#090d1b;fill-opacity:1;fill-rule:nonzero;stroke:#000000;stroke-width:0.92347467;stroke-miterlimit:4;stroke-opacity:1;stroke-dasharray:none;marker:none;visibility:visible;display:inline;overflow:visible;enable-background:accumulate"
           inkscape:connector-curvature="0" />
      </g>
      <g
         id="g5365"
         transform="matrix(-1,0,0,1,31.633495,-9.8485153)">
        <path
           style="color:#000000;fill:#dd962a;fill-opacity:1;fill-rule:nonzero;stroke:#000000;stroke-width:0.84403253;stroke-miterlimit:4;stroke-opacity:1;stroke-dasharray:none;marker:none;visibility:visible;display:inline;overflow:visible;enable-background:accumulate"
           d="m 9.8209711,19.647779 -3.6106922,0 0,1.592821 c 0,1.425779 0.7757216,2.580371 1.7413267,2.580371 l 0.1280388,0 c 0.9656051,0 1.7413267,-1.154592 1.7413267,-2.580371 l 0,-1.592821 z"
           id="path5367"
           inkscape:connector-curvature="0" />
        <path
           style="color:#000000;fill:#090d1b;fill-opacity:1;fill-rule:nonzero;stroke:#000000;stroke-width:0.92347467;stroke-miterlimit:4;stroke-opacity:1;stroke-dasharray:none;marker:none;visibility:visible;display:inline;overflow:visible;enable-background:accumulate"
           d="m 7.9375,14.84375 c -1.1783606,0 -2.125,1.132613 -2.125,2.53125 l 0,2.3125 4.40625,0 0,-2.3125 c 0,-1.398637 -0.9466394,-2.53125 -2.125,-2.53125 l -0.15625,0 z"
           id="path5369"
           inkscape:connector-curvature="0" />
      </g>
      <path
         sodipodi:nodetypes="cccccccc"
         style="color:#000000;fill:#090d1b;fill-opacity:1;fill-rule:nonzero;stroke:#000000;stroke-width:1;stroke-linecap:butt;stroke-linejoin:round;stroke-miterlimit:4;stroke-opacity:1;stroke-dasharray:none;stroke-dashoffset:0;marker:none;visibility:visible;display:inline;overflow:visible;enable-background:accumulate"
         d="m 11.112969,13.599708 0,5.75 4.53125,0 0.84375,-4.5625 4.288294,5.317704 4.65625,-1 -3.444544,-5.505204 z"
         id="rect5349"
         inkscape:connector-curvature="0" />
      <g
         id="g5340"
         transform="translate(1.6647448,-11.723515)">
        <rect
           y="12.376932"
           x="9.4041605"
           height="13.856154"
           width="11.316677"
           id="rect3890"
           style="color:#000000;fill:#0b1952;fill-opacity:1;fill-rule:nonzero;stroke:none;stroke-width:1;marker:none;visibility:visible;display:inline;overflow:visible;enable-background:accumulate" />
        <rect
           y="17.75"
           x="9.4375"
           height="2.25"
           width="11.3125"
           id="rect5332"
           style="color:#000000;fill:#7e94ed;fill-opacity:1;fill-rule:nonzero;stroke:none;stroke-width:1;marker:none;visibility:visible;display:inline;overflow:visible;enable-background:accumulate" />
        <rect
           style="color:#000000;fill:#7e94ed;fill-opacity:1;fill-rule:nonzero;stroke:none;stroke-width:1;marker:none;visibility:visible;display:inline;overflow:visible;enable-background:accumulate"
           id="rect5334"
           width="11.3125"
           height="2.25"
           x="9.4375"
           y="20.9375" />
        <rect
           y="24.125"
           x="9.4375"
           height="2.25"
           width="11.3125"
           id="rect5336"
           style="color:#000000;fill:#7e94ed;fill-opacity:1;fill-rule:nonzero;stroke:none;stroke-width:1;marker:none;visibility:visible;display:inline;overflow:visible;enable-background:accumulate" />
        <rect
           style="color:#000000;fill:none;stroke:#000000;stroke-width:1;stroke-linecap:butt;stroke-linejoin:round;stroke-miterlimit:4;stroke-opacity:1;stroke-dasharray:none;stroke-dashoffset:0;marker:none;visibility:visible;display:inline;overflow:visible;enable-background:accumulate"
           id="rect5338"
           width="11.316677"
           height="13.856154"
           x="9.4041605"
           y="12.376932" />
      </g>
      <g
         transform="translate(1.6647448,-9.8485153)"
         inkscape:label="head"
         id="layer2-4">
        <path
           transform="translate(1.0346413,3.2115486)"
           d="m 21.036427,7.7261362 c 0,3.4170878 -3.165825,6.1871848 -7.071068,6.1871848 -3.905243,0 -7.0710681,-2.770097 -7.0710681,-6.1871848 0,-3.4170875 3.1658251,-6.1871843 7.0710681,-6.1871843 3.905243,0 7.071068,2.7700968 7.071068,6.1871843 z"
           sodipodi:ry="6.1871843"
           sodipodi:rx="7.0710678"
           sodipodi:cy="7.7261362"
           sodipodi:cx="13.965359"
           id="path3087"
           style="color:#000000;fill:url(#linearGradient3311);fill-opacity:1;stroke:#000000;stroke-width:1;stroke-linecap:butt;stroke-linejoin:round;stroke-miterlimit:4;stroke-opacity:1;stroke-dasharray:none;stroke-dashoffset:0;marker:none;visibility:visible;display:inline;overflow:visible;enable-background:accumulate"
           sodipodi:type="arc" />
        <rect
           y="8.267005"
           x="12"
           height="3"
           width="2"
           id="rect3859"
           style="color:#000000;fill:#000000;fill-opacity:1;fill-rule:nonzero;stroke:none;stroke-width:1;marker:none;visibility:visible;display:inline;overflow:visible;enable-background:accumulate" />
        <rect
           style="color:#000000;fill:#000000;fill-opacity:1;fill-rule:nonzero;stroke:none;stroke-width:1;marker:none;visibility:visible;display:inline;overflow:visible;enable-background:accumulate"
           id="rect3861"
           width="2"
           height="3"
           x="16"
           y="8.267005" />
        <rect
           transform="matrix(0.99917006,-0.04073314,0.04073314,0.99917006,0,0)"
           style="color:#000000;fill:#000000;fill-opacity:1;fill-rule:nonzero;stroke:none;stroke-width:1;marker:none;visibility:visible;display:inline;overflow:visible;enable-background:accumulate"
           id="rect3863"
           width="3.7649417"
           height="1.375"
           x="13.983469"
           y="14.164879" />
        <path
           inkscape:connector-curvature="0"
           id="rect3865"
           d="m 14.4375,0.14200487 c 0,0 -0.922795,2.46277023 -1.75,3.46875003 -1.192277,1.4499496 -4.4375,3.5 -4.4375,3.5 l 2.4375,0 c 1.200837,-0.5257198 2.680196,-0.84375 4.3125,-0.84375 1.632304,0 3.111663,0.3180302 4.3125,0.84375 l 2.375,0 c 0,0 -2.982158,-1.9751093 -4.15625,-3.5 -0.764758,-0.993256 -1.875,-3.46875003 -1.875,-3.46875003 l -1.21875,0 z"
           style="color:#000000;fill:url(#linearGradient3313);fill-opacity:1;fill-rule:nonzero;stroke:none;stroke-width:1;marker:none;visibility:visible;display:inline;overflow:visible;enable-background:accumulate" />
        <path
           sodipodi:nodetypes="csccsc"
           style="color:#000000;fill:none;stroke:#000000;stroke-width:1;stroke-opacity:1;marker:none;visibility:visible;display:inline;overflow:visible;enable-background:accumulate"
           d="m 21.6875,7.1107549 c 0,0 -2.982158,-1.9751093 -4.15625,-3.5 -0.764758,-0.993256 -1.875,-3.46875003 -1.875,-3.46875003 l -1.21875,0 c 0,0 -0.922795,2.46277023 -1.75,3.46875003 -1.192277,1.4499496 -4.4375,3.5 -4.4375,3.5"
           id="path4083"
           inkscape:connector-curvature="0" />
      </g>
      <path
         inkscape:connector-curvature="0"
         id="path4000"
         d="m 10.301777,1031.2158 c -4.4873139,0 -8.1250003,3.8056 -8.1250003,8.5 0,1.3226 0.2973403,2.5712 0.8125,3.6875 -1.0056682,0.7138 -1.65625,1.8604 -1.65625,3.1875 0,2.1757 1.7618134,3.9375 3.9375,3.9375 1.6534089,0 3.0406894,-1.0248 3.625,-2.4687 0.4600596,0.085 0.9230009,0.1562 1.4062503,0.1562 0.959189,0 1.864433,-0.1807 2.71875,-0.5 0.251355,1.9334 1.904376,3.4375 3.90625,3.4375 2.175687,0 3.9375,-1.7618 3.9375,-3.9375 0,-1.9253 -1.393135,-3.5317 -3.21875,-3.875 0.497122,-1.1003 0.78125,-2.3272 0.78125,-3.625 0,-4.6944 -3.637686,-8.5 -8.125,-8.5 z"
         style="color:#000000;fill:url(#linearGradient4052);fill-opacity:1;fill-rule:nonzero;stroke:#000000;stroke-width:1;stroke-linecap:butt;stroke-linejoin:round;stroke-miterlimit:4;stroke-opacity:1;stroke-dasharray:none;stroke-dashoffset:0;marker:none;visibility:visible;display:inline;overflow:visible;enable-background:accumulate"
         transform="translate(0,-1022.3622)" />
      <path
         sodipodi:nodetypes="cc"
         inkscape:connector-curvature="0"
         id="path4032"
         d="m 1.6945437,1047.3482 2.048097,-0.9035"
         style="fill:none;stroke:#000000;stroke-width:1px;stroke-linecap:butt;stroke-linejoin:miter;stroke-opacity:1;display:inline"
         transform="translate(0,-1022.3622)" />
      <path
         sodipodi:nodetypes="cc"
         inkscape:connector-curvature="0"
         id="path4034"
         d="m 2.8587572,1049.2624 1.580267,-1.2678"
         style="fill:none;stroke:#000000;stroke-width:1px;stroke-linecap:butt;stroke-linejoin:miter;stroke-opacity:1;display:inline"
         transform="translate(0,-1022.3622)" />
      <path
         sodipodi:nodetypes="cc"
         inkscape:connector-curvature="0"
         id="path4036"
         d="m 5.5407377,1050.5124 0.1982233,-1.966"
         style="fill:none;stroke:#000000;stroke-width:1px;stroke-linecap:butt;stroke-linejoin:miter;stroke-opacity:1;display:inline"
         transform="translate(0,-1022.3622)" />
      <path
         sodipodi:nodetypes="cc"
         inkscape:connector-curvature="0"
         id="path4038"
         d="m 20.676777,1048.4658 -1.9375,-0.875"
         style="fill:none;stroke:#000000;stroke-width:1px;stroke-linecap:butt;stroke-linejoin:miter;stroke-opacity:1;display:inline"
         transform="translate(0,-1022.3622)" />
      <path
         sodipodi:nodetypes="cc"
         inkscape:connector-curvature="0"
         id="path4040"
         d="m 19.114277,1050.3408 -1.25,-1.1875"
         style="fill:none;stroke:#000000;stroke-width:1px;stroke-linecap:butt;stroke-linejoin:miter;stroke-opacity:1;display:inline"
         transform="translate(0,-1022.3622)" />
      <path
         sodipodi:nodetypes="cc"
         inkscape:connector-curvature="0"
         id="path4044"
         d="m 16.364277,1050.9658 0,-1.3125"
         style="fill:none;stroke:#000000;stroke-width:1px;stroke-linecap:butt;stroke-linejoin:miter;stroke-opacity:1;display:inline"
         transform="translate(0,-1022.3622)" />
      <path
         sodipodi:nodetypes="sscscss"
         inkscape:connector-curvature="0"
         id="path4063"
         d="m 9.5517767,1.4785534 c -3.0621227,0 -5.5625,2.4691273 -5.5625,5.53125 0,1.7314959 0.819071,3.2644946 2.0625,4.2812496 0.1146887,1.849088 1.6051377,2.59375 3.4831163,2.59375 1.877979,0 3.402195,-0.744662 3.516884,-2.59375 1.243429,-1.016755 2.03125,-2.5497537 2.03125,-4.2812496 0,-3.0621227 -2.469127,-5.53125 -5.5312503,-5.53125 z"
         style="color:#000000;fill:#4a1800;fill-opacity:1;fill-rule:nonzero;stroke:#000000;stroke-width:1;stroke-linecap:butt;stroke-linejoin:round;stroke-miterlimit:4;stroke-opacity:1;stroke-dasharray:none;stroke-dashoffset:0;marker:none;visibility:visible;display:inline;overflow:visible;enable-background:accumulate" />
      <path
         sodipodi:nodetypes="cssscscssscc"
         inkscape:connector-curvature="0"
         id="path4074"
         d="m 7.3795267,9.3828586 c 0,0 -0.1624219,0.9101084 -0.4678303,1.9455184 -0.3054087,1.035409 -0.8804906,2.192488 -1.1452598,2.408055 -0.4926974,0.40114 -0.9249663,0.561087 -1.2422008,0.631919 -0.3172344,0.07083 -0.4330898,0.04343 -0.4330898,0.04343 -0.3960664,-0.0406 -0.7933704,0.282833 -0.8339405,0.678901 -0.04057,0.396069 0.2829107,0.793343 0.6789833,0.833874 0,0 0.3921441,0.0057 0.9045723,-0.108752 0.5124283,-0.114413 1.1835524,-0.354628 1.8701198,-0.91361 0.9144956,-0.744555 1.3069513,-2.020765 1.6393249,-3.147593 0.3323735,-1.126826 0.509089,-2.0962216 0.509089,-2.0962216 z"
         style="font-size:medium;font-style:normal;font-variant:normal;font-weight:normal;font-stretch:normal;text-indent:0;text-align:start;text-decoration:none;line-height:normal;letter-spacing:normal;word-spacing:normal;text-transform:none;direction:ltr;block-progression:tb;writing-mode:lr-tb;text-anchor:start;baseline-shift:baseline;color:#000000;fill:#ffffff;fill-opacity:1;stroke:#000000;stroke-width:1;stroke-linejoin:round;stroke-miterlimit:4;stroke-opacity:1;stroke-dasharray:none;marker:none;visibility:visible;display:inline;overflow:visible;enable-background:accumulate;font-family:Sans;-inkscape-font-specification:Sans" />
      <use
         height="30"
         width="30"
         transform="matrix(-1,0,0,1,19.138533,0)"
         id="use4102"
         xlink:href="#path4074"
         y="0"
         x="0" />
      <path
         sodipodi:nodetypes="sssss"
         inkscape:connector-curvature="0"
         id="path4082"
         d="m 15.051777,6.9160534 c 0,3.0468908 -2.469993,3.2043836 -5.516884,3.2043836 -3.0468908,0 -5.516884,-0.1574928 -5.516884,-3.2043836 0,-3.0468908 2.469993,-5.5168839 5.5168838,-5.5168839 3.0468912,0 5.5168842,2.4699931 5.5168842,5.5168839 z"
         style="color:#000000;fill:#802a00;fill-opacity:1;fill-rule:nonzero;stroke:#000000;stroke-width:1;stroke-linecap:butt;stroke-linejoin:round;stroke-miterlimit:4;stroke-opacity:1;stroke-dashoffset:0;marker:none;visibility:visible;display:inline;overflow:visible;enable-background:accumulate" />
      <path
         transform="translate(-0.1982233,0.35355339)"
         d="m 6.8942913,5.3838453 c 0,0.6101942 -0.2176504,1.1048544 -0.4861359,1.1048544 -0.2684854,0 -0.4861359,-0.4946602 -0.4861359,-1.1048544 0,-0.6101942 0.2176505,-1.1048543 0.4861359,-1.1048543 0.2684855,0 0.4861359,0.4946601 0.4861359,1.1048543 z"
         sodipodi:ry="1.1048543"
         sodipodi:rx="0.4861359"
         sodipodi:cy="5.3838453"
         sodipodi:cx="6.4081554"
         id="path4068"
         style="color:#000000;fill:#000000;fill-opacity:1;fill-rule:nonzero;stroke:#000000;stroke-width:1;stroke-linecap:butt;stroke-linejoin:round;stroke-miterlimit:4;stroke-opacity:1;stroke-dasharray:none;stroke-dashoffset:0;marker:none;visibility:visible;display:inline;overflow:visible;enable-background:accumulate"
         sodipodi:type="arc" />
      <use
         height="30"
         width="30"
         transform="translate(6.625,0)"
         id="use4070"
         xlink:href="#path4068"
         y="0"
         x="0" />
      <path
         inkscape:connector-curvature="0"
         id="path4104"
         d="M 7.1741454,7.6815244 4.8889797,9.7556593"
         style="fill:none;stroke:#deca94;stroke-width:1.5;stroke-linecap:round;stroke-linejoin:round;stroke-miterlimit:4;stroke-opacity:1;stroke-dasharray:none" />
      <path
         inkscape:connector-curvature="0"
         id="path4106"
         d="M 8.3341745,8.0070478 7.3744048,10.634284"
         style="color:#000000;fill:none;stroke:#deca94;stroke-width:1.5;stroke-linecap:round;stroke-linejoin:round;stroke-miterlimit:4;stroke-opacity:1;stroke-dasharray:none;stroke-dashoffset:0;marker:none;visibility:visible;display:inline;overflow:visible;enable-background:accumulate" />
      <path
         inkscape:connector-curvature="0"
         id="path4110"
         d="m 10.743876,7.9483824 1.005473,2.6272366"
         style="color:#000000;fill:none;stroke:#deca94;stroke-width:1.5;stroke-linecap:round;stroke-linejoin:round;stroke-miterlimit:4;stroke-opacity:1;stroke-dasharray:none;stroke-dashoffset:0;marker:none;visibility:visible;display:inline;overflow:visible;enable-background:accumulate" />
      <path
         inkscape:connector-curvature="0"
         id="path4112"
         d="m 11.944203,7.6558347 1.828133,2.4059963"
         style="color:#000000;fill:none;stroke:#deca94;stroke-width:1.5;stroke-linecap:round;stroke-linejoin:round;stroke-miterlimit:4;stroke-opacity:1;stroke-dasharray:none;stroke-dashoffset:0;marker:none;visibility:visible;display:inline;overflow:visible;enable-background:accumulate" />
      <path
         inkscape:connector-curvature="0"
         id="path4131"
         d="m 9.5782584,8.098201 0,2.620387"
         style="color:#000000;fill:none;stroke:#deca94;stroke-width:1.5;stroke-linecap:round;stroke-linejoin:round;stroke-miterlimit:4;stroke-opacity:1;stroke-dasharray:none;stroke-dashoffset:0;marker:none;visibility:visible;display:inline;overflow:visible;enable-background:accumulate" />
    </g>
    <g
       transform="matrix(0.87959112,0,0,0.87959112,-97.761169,-623.78125)"
       id="g4643">
      <rect
         ry="5"
         rx="5"
         transform="translate(0,552.36215)"
         y="213.62175"
         x="91.216774"
         height="26.870058"
         width="25.455845"
         id="rect4645"
         style="color:#000000;fill:#ffffff;fill-opacity:0.54028434;fill-rule:nonzero;stroke:#ffffff;stroke-width:3;stroke-linejoin:round;stroke-miterlimit:4;stroke-opacity:1;stroke-dasharray:none;marker:none;visibility:visible;display:inline;overflow:visible;enable-background:accumulate" />
      <text
         sodipodi:linespacing="125%"
         id="text4647"
         y="785.25098"
         x="103.62829"
         style="font-size:24px;font-style:normal;font-variant:normal;font-weight:normal;font-stretch:normal;text-align:center;line-height:125%;letter-spacing:0px;word-spacing:0px;text-anchor:middle;fill:#ffffff;fill-opacity:1;stroke:none;font-family:Serif;-inkscape-font-specification:Serif"
         xml:space="preserve"><tspan
           style="font-size:16px;font-style:normal;font-variant:normal;font-weight:bold;font-stretch:normal;fill:#ffffff;fill-opacity:1;font-family:Sans;-inkscape-font-specification:Sans Bold"
           y="785.25098"
           x="103.62829"
           id="tspan4649"
           sodipodi:role="line">D</tspan></text>
    </g>
    <rect
       style="color:#000000;fill:#000000;fill-opacity:0.50196078;fill-rule:nonzero;stroke:#000000;stroke-width:1;stroke-linecap:square;stroke-linejoin:round;stroke-miterlimit:4;stroke-opacity:1;stroke-dasharray:none;stroke-dashoffset:0;marker:none;visibility:visible;display:inline;overflow:visible;enable-background:accumulate"
       id="rect11613"
       width="32.445377"
       height="32.445377"
       x="20.255266"
       y="45.566021" />
    <g
       transform="matrix(0.6346941,0,0,0.6346941,17.249483,-585.3109)"
       id="layer1"
       inkscape:label="Layer 1">
      <g
         transform="translate(-6.5961941,2.4852814)"
         id="g6171">
        <path
           inkscape:connector-curvature="0"
           style="color:#000000;fill:#000000;fill-opacity:0.50196078;fill-rule:nonzero;stroke:#ffffff;stroke-width:1;stroke-linecap:butt;stroke-linejoin:round;stroke-miterlimit:4;stroke-opacity:1;stroke-dashoffset:0;marker:none;visibility:visible;display:inline;overflow:visible;enable-background:accumulate"
           d="m 23.15625,22.75 c -4.487314,0 -8.125,3.8056 -8.125,8.5 0,1.3226 0.29734,2.5712 0.8125,3.6875 -1.005668,0.7138 -1.65625,1.8604 -1.65625,3.1875 0,2.1757 1.761813,3.9375 3.9375,3.9375 1.653409,0 3.040689,-1.02485 3.625,-2.46875 0.460059,0.085 0.923001,0.15625 1.40625,0.15625 0.959189,0 1.864433,-0.1807 2.71875,-0.5 0.251355,1.9334 1.904376,3.4375 3.90625,3.4375 2.175687,0 3.9375,-1.7618 3.9375,-3.9375 0,-0.153282 -0.04532,-0.288737 -0.0625,-0.4375 0.911878,-0.193192 1.789358,-0.516003 2.5625,-0.90625 0.51381,0.9198 1.496557,1.53125 2.625,1.53125 1.659728,0 3,-1.3403 3,-3 0,-1.2202 -0.736703,-2.24795 -1.78125,-2.71875 0.188269,-0.5734 0.3125,-1.16115 0.3125,-1.78125 0,-3.9241 -4.019586,-7.09375 -8.96875,-7.09375 -1.15203,0 -2.696045,-0.261728 -4.15625,-0.40625 -0.0073,-0.0045 -0.02395,0.0045 -0.03125,0 C 26.015641,23.200846 24.650922,22.75 23.15625,22.75 z"
           transform="translate(0,992.36218)"
           id="path4007-3" />
        <path
           sodipodi:nodetypes="cc"
           inkscape:connector-curvature="0"
           id="path4032-1"
           d="m 14.533394,1031.253 2.048097,-0.9035"
           style="fill:#000000;fill-opacity:0.50196078;stroke:#ffffff;stroke-width:1px;stroke-linecap:butt;stroke-linejoin:miter;stroke-opacity:1" />
        <path
           sodipodi:nodetypes="cc"
           inkscape:connector-curvature="0"
           id="path4034-1"
           d="m 15.697607,1033.1672 1.580267,-1.2678"
           style="fill:#000000;fill-opacity:0.50196078;stroke:#ffffff;stroke-width:1px;stroke-linecap:butt;stroke-linejoin:miter;stroke-opacity:1" />
        <path
           sodipodi:nodetypes="cc"
           inkscape:connector-curvature="0"
           id="path4036-9"
           d="m 18.379588,1034.4172 0.198223,-1.966"
           style="fill:#000000;fill-opacity:0.50196078;stroke:#ffffff;stroke-width:1px;stroke-linecap:butt;stroke-linejoin:miter;stroke-opacity:1" />
        <path
           sodipodi:nodetypes="cc"
           inkscape:connector-curvature="0"
           id="path4038-8"
           d="m 33.515627,1032.3706 -1.9375,-0.875"
           style="fill:#000000;fill-opacity:0.50196078;stroke:#ffffff;stroke-width:1px;stroke-linecap:butt;stroke-linejoin:miter;stroke-opacity:1" />
        <path
           sodipodi:nodetypes="cc"
           inkscape:connector-curvature="0"
           id="path4040-4"
           d="m 31.953127,1034.2456 -1.25,-1.1875"
           style="fill:#000000;fill-opacity:0.50196078;stroke:#ffffff;stroke-width:1px;stroke-linecap:butt;stroke-linejoin:miter;stroke-opacity:1" />
        <path
           sodipodi:nodetypes="cc"
           inkscape:connector-curvature="0"
           id="path4044-6"
           d="m 29.203127,1034.8706 0,-1.3125"
           style="fill:#000000;fill-opacity:0.50196078;stroke:#ffffff;stroke-width:1px;stroke-linecap:butt;stroke-linejoin:miter;stroke-opacity:1" />
        <g
           id="layer3-7"
           inkscape:label="head"
           transform="translate(12.83885,1006.267)"
           style="fill:#000000;fill-opacity:0.50196078;stroke:#ffffff;stroke-opacity:1">
          <path
             style="color:#000000;fill:#000000;fill-opacity:0.50196078;fill-rule:nonzero;stroke:#ffffff;stroke-width:1;stroke-linecap:butt;stroke-linejoin:round;stroke-miterlimit:4;stroke-opacity:1;stroke-dasharray:none;stroke-dashoffset:0;marker:none;visibility:visible;display:inline;overflow:visible;enable-background:accumulate"
             d="m 9.5517767,1.4785534 c -3.0621227,0 -5.5625,2.4691273 -5.5625,5.53125 0,1.7314959 0.819071,3.2644946 2.0625,4.2812496 0.1146887,1.849088 1.6051377,2.59375 3.4831163,2.59375 1.877979,0 3.402195,-0.744662 3.516884,-2.59375 1.243429,-1.016755 2.03125,-2.5497537 2.03125,-4.2812496 0,-3.0621227 -2.469127,-5.53125 -5.5312503,-5.53125 z"
             id="path4063-5"
             inkscape:connector-curvature="0"
             sodipodi:nodetypes="sscscss" />
          <path
             style="font-size:medium;font-style:normal;font-variant:normal;font-weight:normal;font-stretch:normal;text-indent:0;text-align:start;text-decoration:none;line-height:normal;letter-spacing:normal;word-spacing:normal;text-transform:none;direction:ltr;block-progression:tb;writing-mode:lr-tb;text-anchor:start;baseline-shift:baseline;color:#000000;fill:#000000;fill-opacity:0.50196078;stroke:#ffffff;stroke-width:1;stroke-linejoin:round;stroke-miterlimit:4;stroke-opacity:1;stroke-dasharray:none;marker:none;visibility:visible;display:inline;overflow:visible;enable-background:accumulate;font-family:Sans;-inkscape-font-specification:Sans"
             d="m 7.3795267,9.3828586 c 0,0 -0.1624219,0.9101084 -0.4678303,1.9455184 -0.3054087,1.035409 -0.8804906,2.192488 -1.1452598,2.408055 -0.4926974,0.40114 -0.9249663,0.561087 -1.2422008,0.631919 -0.3172344,0.07083 -0.4330898,0.04343 -0.4330898,0.04343 -0.3960664,-0.0406 -0.7933704,0.282833 -0.8339405,0.678901 -0.04057,0.396069 0.2829107,0.793343 0.6789833,0.833874 0,0 0.3921441,0.0057 0.9045723,-0.108752 0.5124283,-0.114413 1.1835524,-0.354628 1.8701198,-0.91361 0.9144956,-0.744555 1.3069513,-2.020765 1.6393249,-3.147593 0.3323735,-1.126826 0.509089,-2.0962216 0.509089,-2.0962216 z"
             id="path4074-9"
             inkscape:connector-curvature="0"
             sodipodi:nodetypes="cssscscssscc" />
          <use
             x="0"
             y="0"
             xlink:href="#path4074-9"
             id="use4102-5"
             transform="matrix(-1,0,0,1,19.138533,0)"
             width="30"
             height="30"
             style="fill:#000000;fill-opacity:0.50196078;stroke:#ffffff;stroke-opacity:1" />
          <path
             style="color:#000000;fill:#000000;fill-opacity:0.50196078;fill-rule:nonzero;stroke:#ffffff;stroke-width:1;stroke-linecap:butt;stroke-linejoin:round;stroke-miterlimit:4;stroke-opacity:1;stroke-dashoffset:0;marker:none;visibility:visible;display:inline;overflow:visible;enable-background:accumulate"
             d="m 15.051777,6.9160534 c 0,3.0468908 -2.469993,3.2043836 -5.516884,3.2043836 -3.0468908,0 -5.516884,-0.1574928 -5.516884,-3.2043836 0,-3.0468908 2.469993,-5.5168839 5.5168838,-5.5168839 3.0468912,0 5.5168842,2.4699931 5.5168842,5.5168839 z"
             id="path4082-2"
             inkscape:connector-curvature="0"
             sodipodi:nodetypes="sssss" />
          <path
             sodipodi:type="arc"
             style="color:#000000;fill:#000000;fill-opacity:0.50196078;fill-rule:nonzero;stroke:#ffffff;stroke-width:1;stroke-linecap:butt;stroke-linejoin:round;stroke-miterlimit:4;stroke-opacity:1;stroke-dasharray:none;stroke-dashoffset:0;marker:none;visibility:visible;display:inline;overflow:visible;enable-background:accumulate"
             id="path4068-3"
             sodipodi:cx="6.4081554"
             sodipodi:cy="5.3838453"
             sodipodi:rx="0.4861359"
             sodipodi:ry="1.1048543"
             d="m 6.8942913,5.3838453 c 0,0.6101942 -0.2176504,1.1048544 -0.4861359,1.1048544 -0.2684854,0 -0.4861359,-0.4946602 -0.4861359,-1.1048544 0,-0.6101942 0.2176505,-1.1048543 0.4861359,-1.1048543 0.2684855,0 0.4861359,0.4946601 0.4861359,1.1048543 z"
             transform="translate(-0.1982233,0.35355339)" />
          <use
             x="0"
             y="0"
             xlink:href="#path4068-3"
             id="use4070-8"
             transform="translate(6.625,0)"
             width="30"
             height="30"
             style="fill:#000000;fill-opacity:0.50196078;stroke:#ffffff;stroke-opacity:1" />
          <path
             style="fill:#000000;fill-opacity:0.50196078;stroke:#ffffff;stroke-width:1.5;stroke-linecap:round;stroke-linejoin:round;stroke-miterlimit:4;stroke-opacity:1;stroke-dasharray:none"
             d="M 7.1741454,7.6815244 4.8889797,9.7556593"
             id="path4104-7"
             inkscape:connector-curvature="0" />
          <path
             style="color:#000000;fill:#000000;fill-opacity:0.50196078;stroke:#ffffff;stroke-width:1.5;stroke-linecap:round;stroke-linejoin:round;stroke-miterlimit:4;stroke-opacity:1;stroke-dasharray:none;stroke-dashoffset:0;marker:none;visibility:visible;display:inline;overflow:visible;enable-background:accumulate"
             d="M 8.3341745,8.0070478 7.3744048,10.634284"
             id="path4106-6"
             inkscape:connector-curvature="0" />
          <path
             style="color:#000000;fill:#000000;fill-opacity:0.50196078;stroke:#ffffff;stroke-width:1.5;stroke-linecap:round;stroke-linejoin:round;stroke-miterlimit:4;stroke-opacity:1;stroke-dasharray:none;stroke-dashoffset:0;marker:none;visibility:visible;display:inline;overflow:visible;enable-background:accumulate"
             d="m 10.743876,7.9483824 1.005473,2.6272366"
             id="path4110-7"
             inkscape:connector-curvature="0" />
          <path
             style="color:#000000;fill:#000000;fill-opacity:0.50196078;stroke:#ffffff;stroke-width:1.5;stroke-linecap:round;stroke-linejoin:round;stroke-miterlimit:4;stroke-opacity:1;stroke-dasharray:none;stroke-dashoffset:0;marker:none;visibility:visible;display:inline;overflow:visible;enable-background:accumulate"
             d="m 11.944203,7.6558347 1.828133,2.4059963"
             id="path4112-0"
             inkscape:connector-curvature="0" />
          <path
             style="color:#000000;fill:#000000;fill-opacity:0.50196078;stroke:#ffffff;stroke-width:1.5;stroke-linecap:round;stroke-linejoin:round;stroke-miterlimit:4;stroke-opacity:1;stroke-dasharray:none;stroke-dashoffset:0;marker:none;visibility:visible;display:inline;overflow:visible;enable-background:accumulate"
             d="m 9.5782584,8.098201 0,2.620387"
             id="path4131-3"
             inkscape:connector-curvature="0" />
        </g>
      </g>
      <path
         inkscape:connector-curvature="0"
         id="path6192"
         d="m 33.875,1001 c -1.144217,0.026 -2.207379,0.2882 -3.15625,0.7188 -1.897742,0.861 -3.310248,2.2962 -4.375,3.75 -2.129505,2.9075 -3.03125,6.1249 -3.03125,6.125 l 3.84375,1.125 c 0,0 0.828807,-2.6786 2.4375,-4.875 0.804347,-1.0983 1.767511,-2.0089 2.78125,-2.4688 1.013739,-0.4599 2.050931,-0.5871 3.625,0.031 1.290904,0.5072 2.616301,1.9669 3.6875,4.2188 1.071199,2.2519 1.850747,5.1704 2.40625,8 0.20587,1.0486 0.261427,1.8182 0.40625,2.8125 l -2.34375,-3.625 -3.46875,2 0.09375,0.1875 7.65625,15.0625 2.0625,4.0313 0.96875,-2.625 0.09375,0.125 0,-0.3126 0.53125,-1.4374 L 53,1020.9062 49.25,1019.5 47.15625,1025 c -0.181976,-2.167 -0.519894,-5.074 -1.125,-8.1562 -0.594712,-3.0294 -1.448881,-6.2022 -2.75,-8.9376 -1.301119,-2.7353 -3.077652,-5.1755 -5.8125,-6.25 -1.225841,-0.4815 -2.449533,-0.6824 -3.59375,-0.6562 z"
         style="font-size:medium;font-style:normal;font-variant:normal;font-weight:normal;font-stretch:normal;text-indent:0;text-align:start;text-decoration:none;line-height:normal;letter-spacing:normal;word-spacing:normal;text-transform:none;direction:ltr;block-progression:tb;writing-mode:lr-tb;text-anchor:start;baseline-shift:baseline;color:#000000;fill:#000000;fill-opacity:0.50196078;stroke:#ffffff;stroke-width:1;stroke-miterlimit:4;stroke-opacity:1;stroke-dasharray:none;marker:none;visibility:visible;display:inline;overflow:visible;enable-background:accumulate;font-family:Sans;-inkscape-font-specification:Sans" />
    </g>
  </g>
</svg>
